<svg id="visual" viewBox="0 0 1920 1080" width="1920" height="1080" xmlns="http://www.w3.org/2000/svg" xmlns:xlink="http://www.w3.org/1999/xlink" version="1.1"><g stroke-width="0.1" stroke-linejoin="bevel"><path d="M960 552L1036 489L974 479Z" fill="#303140" stroke="#f6f0f9"></path><path d="M1005 408L951 456L974 479Z" fill="#2e2e3b" stroke="#f6f0f9"></path><path d="M974 479L879 509L960 552Z" fill="#2f2f3d" stroke="#f6f0f9"></path><path d="M1036 489L1005 408L974 479Z" fill="#2c2c37" stroke="#f6f0f9"></path><path d="M960 552L1111 549L1036 489Z" fill="#2d2c38" stroke="#f6f0f9"></path><path d="M1036 489L1068 394L1005 408Z" fill="#30303f" stroke="#f6f0f9"></path><path d="M846 506L879 509L807 428Z" fill="#2e2d3a" stroke="#f6f0f9"></path><path d="M951 456L879 509L974 479Z" fill="#30303f" stroke="#f6f0f9"></path><path d="M879 509L898 607L960 552Z" fill="#30303f" stroke="#f6f0f9"></path><path d="M960 552L1123 639L1111 549Z" fill="#2f2f3d" stroke="#f6f0f9"></path><path d="M1190 491L1068 394L1036 489Z" fill="#2e2d3a" stroke="#f6f0f9"></path><path d="M807 428L879 509L951 456Z" fill="#2f2f3d" stroke="#f6f0f9"></path><path d="M879 509L846 506L898 607Z" fill="#2c2b36" stroke="#f6f0f9"></path><path d="M1068 394L1050 367L1005 408Z" fill="#303140" stroke="#f6f0f9"></path><path d="M1005 408L924 368L951 456Z" fill="#2e2d3a" stroke="#f6f0f9"></path><path d="M996 722L1123 639L960 552Z" fill="#2d2c38" stroke="#f6f0f9"></path><path d="M1007 294L924 368L1005 408Z" fill="#2e2d3a" stroke="#f6f0f9"></path><path d="M1123 639L1157 587L1111 549Z" fill="#2d2c38" stroke="#f6f0f9"></path><path d="M1111 549L1190 491L1036 489Z" fill="#30303f" stroke="#f6f0f9"></path><path d="M1157 587L1190 491L1111 549Z" fill="#2e2f3c" stroke="#f6f0f9"></path><path d="M1068 394L1167 265L1050 367Z" fill="#303140" stroke="#f6f0f9"></path><path d="M898 607L996 722L960 552Z" fill="#2f303e" stroke="#f6f0f9"></path><path d="M1007 294L904 337L924 368Z" fill="#2e2e3b" stroke="#f6f0f9"></path><path d="M924 368L807 428L951 456Z" fill="#2e2f3c" stroke="#f6f0f9"></path><path d="M1259 614L1204 484L1190 491Z" fill="#2d2c38" stroke="#f6f0f9"></path><path d="M1190 491L1190 430L1068 394Z" fill="#2c2c37" stroke="#f6f0f9"></path><path d="M836 748L948 724L898 607Z" fill="#30303f" stroke="#f6f0f9"></path><path d="M898 607L948 724L996 722Z" fill="#2d2d39" stroke="#f6f0f9"></path><path d="M1204 484L1190 430L1190 491Z" fill="#2f2f3d" stroke="#f6f0f9"></path><path d="M798 393L807 428L924 368Z" fill="#2e2d3a" stroke="#f6f0f9"></path><path d="M746 620L796 665L898 607Z" fill="#2e2d3a" stroke="#f6f0f9"></path><path d="M1053 278L1007 294L1050 367Z" fill="#2f2f3d" stroke="#f6f0f9"></path><path d="M1050 367L1007 294L1005 408Z" fill="#2e2d3a" stroke="#f6f0f9"></path><path d="M904 337L798 393L924 368Z" fill="#2c2c37" stroke="#f6f0f9"></path><path d="M948 724L1032 762L996 722Z" fill="#2d2c38" stroke="#f6f0f9"></path><path d="M996 722L1032 762L1123 639Z" fill="#2e2f3c" stroke="#f6f0f9"></path><path d="M746 620L846 506L726 583Z" fill="#2d2c38" stroke="#f6f0f9"></path><path d="M746 620L898 607L846 506Z" fill="#2c2b36" stroke="#f6f0f9"></path><path d="M1002 864L1041 835L1032 762Z" fill="#2e2e3b" stroke="#f6f0f9"></path><path d="M1264 392L1211 392L1283 424Z" fill="#2e2f3c" stroke="#f6f0f9"></path><path d="M1190 430L1211 392L1068 394Z" fill="#2f303e" stroke="#f6f0f9"></path><path d="M1167 265L1053 278L1050 367Z" fill="#303140" stroke="#f6f0f9"></path><path d="M1223 705L1228 661L1123 639Z" fill="#30303f" stroke="#f6f0f9"></path><path d="M1123 639L1228 661L1157 587Z" fill="#2c2b36" stroke="#f6f0f9"></path><path d="M1157 587L1259 614L1190 491Z" fill="#2f303e" stroke="#f6f0f9"></path><path d="M1283 424L1211 392L1190 430Z" fill="#2e2e3b" stroke="#f6f0f9"></path><path d="M726 583L846 506L807 428Z" fill="#2d2d39" stroke="#f6f0f9"></path><path d="M1228 661L1259 614L1157 587Z" fill="#2d2c38" stroke="#f6f0f9"></path><path d="M739 696L836 748L796 665Z" fill="#2c2b36" stroke="#f6f0f9"></path><path d="M796 665L836 748L898 607Z" fill="#2e2e3b" stroke="#f6f0f9"></path><path d="M1024 239L991 242L1007 294Z" fill="#2e2d3a" stroke="#f6f0f9"></path><path d="M1007 294L991 242L904 337Z" fill="#2e2e3b" stroke="#f6f0f9"></path><path d="M748 293L709 374L798 393Z" fill="#2e2d3a" stroke="#f6f0f9"></path><path d="M709 374L726 583L807 428Z" fill="#2d2c38" stroke="#f6f0f9"></path><path d="M836 748L872 772L948 724Z" fill="#2d2c38" stroke="#f6f0f9"></path><path d="M1053 278L1024 239L1007 294Z" fill="#2f303e" stroke="#f6f0f9"></path><path d="M1171 235L1024 239L1053 278Z" fill="#30303f" stroke="#f6f0f9"></path><path d="M1186 818L1223 705L1123 639Z" fill="#303140" stroke="#f6f0f9"></path><path d="M1228 661L1285 620L1259 614Z" fill="#2c2c37" stroke="#f6f0f9"></path><path d="M1283 424L1190 430L1204 484Z" fill="#2f303e" stroke="#f6f0f9"></path><path d="M1211 392L1167 265L1068 394Z" fill="#30303f" stroke="#f6f0f9"></path><path d="M1285 620L1283 424L1204 484Z" fill="#2e2e3b" stroke="#f6f0f9"></path><path d="M1328 631L1285 620L1228 661Z" fill="#30303f" stroke="#f6f0f9"></path><path d="M1259 614L1285 620L1204 484Z" fill="#30303f" stroke="#f6f0f9"></path><path d="M1257 292L1167 265L1211 392Z" fill="#303140" stroke="#f6f0f9"></path><path d="M681 729L739 696L746 620Z" fill="#303140" stroke="#f6f0f9"></path><path d="M746 620L739 696L796 665Z" fill="#2e2d3a" stroke="#f6f0f9"></path><path d="M836 748L790 901L872 772Z" fill="#2c2b36" stroke="#f6f0f9"></path><path d="M1002 864L1032 762L948 724Z" fill="#2e2f3c" stroke="#f6f0f9"></path><path d="M1032 762L1087 827L1123 639Z" fill="#303140" stroke="#f6f0f9"></path><path d="M1041 835L1087 827L1032 762Z" fill="#2c2b36" stroke="#f6f0f9"></path><path d="M959 135L974 202L1024 239Z" fill="#303140" stroke="#f6f0f9"></path><path d="M1024 239L974 202L991 242Z" fill="#2e2f3c" stroke="#f6f0f9"></path><path d="M991 242L974 202L904 337Z" fill="#2f303e" stroke="#f6f0f9"></path><path d="M748 293L798 393L904 337Z" fill="#2d2d39" stroke="#f6f0f9"></path><path d="M798 393L709 374L807 428Z" fill="#2d2c38" stroke="#f6f0f9"></path><path d="M1257 292L1171 235L1167 265Z" fill="#2e2d3a" stroke="#f6f0f9"></path><path d="M1167 265L1171 235L1053 278Z" fill="#2f2f3d" stroke="#f6f0f9"></path><path d="M1257 292L1211 392L1264 392Z" fill="#2c2c37" stroke="#f6f0f9"></path><path d="M747 259L748 293L904 337Z" fill="#2f2f3d" stroke="#f6f0f9"></path><path d="M872 772L1002 864L948 724Z" fill="#2e2e3b" stroke="#f6f0f9"></path><path d="M1041 835L1155 897L1087 827Z" fill="#30303f" stroke="#f6f0f9"></path><path d="M881 958L1002 864L872 772Z" fill="#30303f" stroke="#f6f0f9"></path><path d="M1350 227L1257 292L1399 287Z" fill="#30303f" stroke="#f6f0f9"></path><path d="M1223 705L1328 631L1228 661Z" fill="#2d2c38" stroke="#f6f0f9"></path><path d="M1285 620L1328 631L1283 424Z" fill="#303140" stroke="#f6f0f9"></path><path d="M1399 287L1257 292L1264 392Z" fill="#2f303e" stroke="#f6f0f9"></path><path d="M1375 702L1328 631L1223 705Z" fill="#2d2c38" stroke="#f6f0f9"></path><path d="M1155 897L1186 818L1087 827Z" fill="#2d2d39" stroke="#f6f0f9"></path><path d="M1087 827L1186 818L1123 639Z" fill="#30303f" stroke="#f6f0f9"></path><path d="M1186 818L1227 794L1223 705Z" fill="#2d2d39" stroke="#f6f0f9"></path><path d="M868 156L747 259L904 337Z" fill="#2e2e3b" stroke="#f6f0f9"></path><path d="M748 293L594 319L709 374Z" fill="#30303f" stroke="#f6f0f9"></path><path d="M658 728L681 729L746 620Z" fill="#2e2f3c" stroke="#f6f0f9"></path><path d="M739 696L704 788L836 748Z" fill="#2c2b36" stroke="#f6f0f9"></path><path d="M658 728L746 620L579 666Z" fill="#2e2d3a" stroke="#f6f0f9"></path><path d="M681 729L686 741L739 696Z" fill="#2e2f3c" stroke="#f6f0f9"></path><path d="M959 135L868 156L974 202Z" fill="#2e2d3a" stroke="#f6f0f9"></path><path d="M974 202L868 156L904 337Z" fill="#2e2e3b" stroke="#f6f0f9"></path><path d="M1063 49L959 135L1024 239Z" fill="#2e2f3c" stroke="#f6f0f9"></path><path d="M683 824L704 788L686 741Z" fill="#2c2c37" stroke="#f6f0f9"></path><path d="M686 741L704 788L739 696Z" fill="#2e2e3b" stroke="#f6f0f9"></path><path d="M579 666L746 620L726 583Z" fill="#2d2c38" stroke="#f6f0f9"></path><path d="M681 729L658 728L686 741Z" fill="#2d2c38" stroke="#f6f0f9"></path><path d="M1096 997L1155 897L1041 835Z" fill="#2d2d39" stroke="#f6f0f9"></path><path d="M1186 818L1155 897L1227 794Z" fill="#2e2d3a" stroke="#f6f0f9"></path><path d="M868 156L806 153L747 259Z" fill="#30303f" stroke="#f6f0f9"></path><path d="M877 109L806 153L868 156Z" fill="#2c2c37" stroke="#f6f0f9"></path><path d="M1227 794L1375 702L1223 705Z" fill="#30303f" stroke="#f6f0f9"></path><path d="M1399 287L1264 392L1283 424Z" fill="#2e2d3a" stroke="#f6f0f9"></path><path d="M1404 745L1375 702L1371 841Z" fill="#2f2f3d" stroke="#f6f0f9"></path><path d="M959 135L877 109L868 156Z" fill="#2e2d3a" stroke="#f6f0f9"></path><path d="M695 882L790 901L704 788Z" fill="#2e2e3b" stroke="#f6f0f9"></path><path d="M704 788L790 901L836 748Z" fill="#2e2e3b" stroke="#f6f0f9"></path><path d="M1002 864L1096 997L1041 835Z" fill="#2e2e3b" stroke="#f6f0f9"></path><path d="M658 728L683 824L686 741Z" fill="#2c2c37" stroke="#f6f0f9"></path><path d="M548 486L579 666L726 583Z" fill="#2e2f3c" stroke="#f6f0f9"></path><path d="M658 728L512 857L683 824Z" fill="#2d2d39" stroke="#f6f0f9"></path><path d="M548 486L726 583L709 374Z" fill="#2f303e" stroke="#f6f0f9"></path><path d="M790 901L881 958L872 772Z" fill="#2c2c37" stroke="#f6f0f9"></path><path d="M594 319L748 293L609 228Z" fill="#2c2c37" stroke="#f6f0f9"></path><path d="M534 364L548 486L709 374Z" fill="#2f303e" stroke="#f6f0f9"></path><path d="M877 109L783 124L806 153Z" fill="#303140" stroke="#f6f0f9"></path><path d="M806 153L783 124L747 259Z" fill="#30303f" stroke="#f6f0f9"></path><path d="M609 228L748 293L747 259Z" fill="#2c2c37" stroke="#f6f0f9"></path><path d="M1248 133L1167 97L1171 235Z" fill="#303140" stroke="#f6f0f9"></path><path d="M1171 235L1167 97L1024 239Z" fill="#2c2b36" stroke="#f6f0f9"></path><path d="M959 135L951 0L877 109Z" fill="#2d2d39" stroke="#f6f0f9"></path><path d="M1399 287L1283 424L1504 396Z" fill="#30303f" stroke="#f6f0f9"></path><path d="M1257 292L1248 133L1171 235Z" fill="#2d2d39" stroke="#f6f0f9"></path><path d="M1350 227L1248 133L1257 292Z" fill="#30303f" stroke="#f6f0f9"></path><path d="M1371 841L1375 702L1227 794Z" fill="#2e2f3c" stroke="#f6f0f9"></path><path d="M1497 522L1283 424L1328 631Z" fill="#2c2c37" stroke="#f6f0f9"></path><path d="M1460 614L1328 631L1375 702Z" fill="#2d2d39" stroke="#f6f0f9"></path><path d="M1472 666L1460 614L1375 702Z" fill="#303140" stroke="#f6f0f9"></path><path d="M683 824L695 882L704 788Z" fill="#2d2d39" stroke="#f6f0f9"></path><path d="M790 901L719 944L881 958Z" fill="#2f2f3d" stroke="#f6f0f9"></path><path d="M671 929L695 882L664 924Z" fill="#303140" stroke="#f6f0f9"></path><path d="M1134 29L1063 49L1167 97Z" fill="#2f2f3d" stroke="#f6f0f9"></path><path d="M1167 97L1063 49L1024 239Z" fill="#2f2f3d" stroke="#f6f0f9"></path><path d="M695 0L738 105L783 124Z" fill="#2c2b36" stroke="#f6f0f9"></path><path d="M963 1056L1096 997L1002 864Z" fill="#303140" stroke="#f6f0f9"></path><path d="M1278 1003L1371 841L1227 794Z" fill="#2f2f3d" stroke="#f6f0f9"></path><path d="M644 122L609 228L747 259Z" fill="#2f2f3d" stroke="#f6f0f9"></path><path d="M594 319L534 364L709 374Z" fill="#303140" stroke="#f6f0f9"></path><path d="M1278 1003L1227 794L1155 897Z" fill="#2d2c38" stroke="#f6f0f9"></path><path d="M1404 745L1472 666L1375 702Z" fill="#2e2f3c" stroke="#f6f0f9"></path><path d="M543 298L534 364L594 319Z" fill="#30303f" stroke="#f6f0f9"></path><path d="M908 0L783 124L877 109Z" fill="#2f2f3d" stroke="#f6f0f9"></path><path d="M783 124L738 105L747 259Z" fill="#30303f" stroke="#f6f0f9"></path><path d="M1549 682L1472 666L1482 833Z" fill="#2e2f3c" stroke="#f6f0f9"></path><path d="M1460 614L1497 522L1328 631Z" fill="#2d2d39" stroke="#f6f0f9"></path><path d="M1518 508L1497 522L1526 635Z" fill="#2c2b36" stroke="#f6f0f9"></path><path d="M671 929L719 944L695 882Z" fill="#2d2d39" stroke="#f6f0f9"></path><path d="M695 882L719 944L790 901Z" fill="#30303f" stroke="#f6f0f9"></path><path d="M881 958L963 1056L1002 864Z" fill="#2f2f3d" stroke="#f6f0f9"></path><path d="M609 228L543 298L594 319Z" fill="#2d2d39" stroke="#f6f0f9"></path><path d="M1209 0L1134 29L1167 97Z" fill="#2f303e" stroke="#f6f0f9"></path><path d="M1063 49L951 0L959 135Z" fill="#2e2f3c" stroke="#f6f0f9"></path><path d="M1526 635L1497 522L1460 614Z" fill="#2d2c38" stroke="#f6f0f9"></path><path d="M1517 442L1504 396L1283 424Z" fill="#2e2e3b" stroke="#f6f0f9"></path><path d="M458 584L505 684L579 666Z" fill="#2d2d39" stroke="#f6f0f9"></path><path d="M579 666L502 707L658 728Z" fill="#2e2f3c" stroke="#f6f0f9"></path><path d="M468 562L579 666L548 486Z" fill="#2e2d3a" stroke="#f6f0f9"></path><path d="M1517 442L1283 424L1497 522Z" fill="#2f303e" stroke="#f6f0f9"></path><path d="M1399 287L1419 182L1350 227Z" fill="#303140" stroke="#f6f0f9"></path><path d="M664 924L695 882L683 824Z" fill="#2f303e" stroke="#f6f0f9"></path><path d="M512 857L664 924L683 824Z" fill="#30303f" stroke="#f6f0f9"></path><path d="M467 389L548 486L534 364Z" fill="#2f2f3d" stroke="#f6f0f9"></path><path d="M467 389L476 492L548 486Z" fill="#2d2c38" stroke="#f6f0f9"></path><path d="M1093 0L951 0L1063 49Z" fill="#2f303e" stroke="#f6f0f9"></path><path d="M1518 508L1517 442L1497 522Z" fill="#2e2d3a" stroke="#f6f0f9"></path><path d="M951 0L908 0L877 109Z" fill="#303140" stroke="#f6f0f9"></path><path d="M1134 29L1093 0L1063 49Z" fill="#2c2b36" stroke="#f6f0f9"></path><path d="M428 687L502 707L505 684Z" fill="#2c2c37" stroke="#f6f0f9"></path><path d="M505 684L502 707L579 666Z" fill="#2d2c38" stroke="#f6f0f9"></path><path d="M476 492L468 562L548 486Z" fill="#2c2c37" stroke="#f6f0f9"></path><path d="M695 0L667 105L738 105Z" fill="#2d2d39" stroke="#f6f0f9"></path><path d="M738 105L644 122L747 259Z" fill="#2d2c38" stroke="#f6f0f9"></path><path d="M609 228L509 294L543 298Z" fill="#2e2d3a" stroke="#f6f0f9"></path><path d="M1390 991L1415 856L1371 841Z" fill="#2c2b36" stroke="#f6f0f9"></path><path d="M1371 841L1415 856L1404 745Z" fill="#2d2d39" stroke="#f6f0f9"></path><path d="M667 105L644 122L738 105Z" fill="#2c2b36" stroke="#f6f0f9"></path><path d="M963 1056L881 958L872 1080Z" fill="#2e2f3c" stroke="#f6f0f9"></path><path d="M955 1080L963 1056L872 1080Z" fill="#2d2d39" stroke="#f6f0f9"></path><path d="M1096 997L1278 1003L1155 897Z" fill="#30303f" stroke="#f6f0f9"></path><path d="M1549 682L1526 635L1472 666Z" fill="#2e2f3c" stroke="#f6f0f9"></path><path d="M1472 666L1526 635L1460 614Z" fill="#2d2c38" stroke="#f6f0f9"></path><path d="M1618 454L1556 345L1517 442Z" fill="#2f303e" stroke="#f6f0f9"></path><path d="M1510 174L1419 182L1399 287Z" fill="#303140" stroke="#f6f0f9"></path><path d="M1350 227L1324 47L1248 133Z" fill="#2c2c37" stroke="#f6f0f9"></path><path d="M1240 0L1209 0L1167 97Z" fill="#2e2f3c" stroke="#f6f0f9"></path><path d="M1134 29L1209 0L1093 0Z" fill="#2f2f3d" stroke="#f6f0f9"></path><path d="M416 287L509 294L433 189Z" fill="#2e2f3c" stroke="#f6f0f9"></path><path d="M543 298L487 325L534 364Z" fill="#2d2d39" stroke="#f6f0f9"></path><path d="M359 622L458 584L468 562Z" fill="#303140" stroke="#f6f0f9"></path><path d="M468 562L458 584L579 666Z" fill="#2c2b36" stroke="#f6f0f9"></path><path d="M359 622L468 562L336 448Z" fill="#2e2e3b" stroke="#f6f0f9"></path><path d="M1069 1080L1109 1055L1096 997Z" fill="#2f303e" stroke="#f6f0f9"></path><path d="M487 325L467 389L534 364Z" fill="#303140" stroke="#f6f0f9"></path><path d="M509 294L487 325L543 298Z" fill="#303140" stroke="#f6f0f9"></path><path d="M1170 1080L1278 1003L1096 997Z" fill="#2f2f3d" stroke="#f6f0f9"></path><path d="M872 1080L881 958L745 1080Z" fill="#30303f" stroke="#f6f0f9"></path><path d="M963 1056L1069 1080L1096 997Z" fill="#2c2b36" stroke="#f6f0f9"></path><path d="M1240 0L1167 97L1248 133Z" fill="#2f2f3d" stroke="#f6f0f9"></path><path d="M955 1080L1069 1080L963 1056Z" fill="#2d2d39" stroke="#f6f0f9"></path><path d="M1109 1055L1170 1080L1096 997Z" fill="#2c2c37" stroke="#f6f0f9"></path><path d="M745 1080L881 958L719 944Z" fill="#2c2b36" stroke="#f6f0f9"></path><path d="M745 1080L719 944L682 1080Z" fill="#2f303e" stroke="#f6f0f9"></path><path d="M1482 833L1472 666L1404 745Z" fill="#30303f" stroke="#f6f0f9"></path><path d="M1680 554L1618 454L1518 508Z" fill="#2c2b36" stroke="#f6f0f9"></path><path d="M1324 47L1240 0L1248 133Z" fill="#2d2c38" stroke="#f6f0f9"></path><path d="M1504 889L1482 833L1415 856Z" fill="#2e2d3a" stroke="#f6f0f9"></path><path d="M1415 856L1482 833L1404 745Z" fill="#2e2f3c" stroke="#f6f0f9"></path><path d="M1419 182L1324 47L1350 227Z" fill="#30303f" stroke="#f6f0f9"></path><path d="M1278 1003L1333 993L1371 841Z" fill="#2d2c38" stroke="#f6f0f9"></path><path d="M1326 1080L1333 993L1278 1003Z" fill="#2f303e" stroke="#f6f0f9"></path><path d="M1069 1080L1170 1080L1109 1055Z" fill="#2d2d39" stroke="#f6f0f9"></path><path d="M1517 442L1556 345L1504 396Z" fill="#2c2c37" stroke="#f6f0f9"></path><path d="M1504 396L1556 345L1399 287Z" fill="#2d2c38" stroke="#f6f0f9"></path><path d="M1404 25L1297 0L1324 47Z" fill="#2d2d39" stroke="#f6f0f9"></path><path d="M1618 454L1517 442L1518 508Z" fill="#2d2d39" stroke="#f6f0f9"></path><path d="M477 822L512 857L502 707Z" fill="#2c2c37" stroke="#f6f0f9"></path><path d="M502 707L512 857L658 728Z" fill="#2e2d3a" stroke="#f6f0f9"></path><path d="M682 1080L719 944L671 929Z" fill="#2c2b36" stroke="#f6f0f9"></path><path d="M359 622L428 687L458 584Z" fill="#303140" stroke="#f6f0f9"></path><path d="M458 584L428 687L505 684Z" fill="#2e2e3b" stroke="#f6f0f9"></path><path d="M1459 110L1324 47L1419 182Z" fill="#2d2c38" stroke="#f6f0f9"></path><path d="M1324 47L1297 0L1240 0Z" fill="#2e2f3c" stroke="#f6f0f9"></path><path d="M1170 1080L1222 1080L1278 1003Z" fill="#2c2b36" stroke="#f6f0f9"></path><path d="M428 687L477 822L502 707Z" fill="#2f303e" stroke="#f6f0f9"></path><path d="M588 0L534 64L644 122Z" fill="#2f303e" stroke="#f6f0f9"></path><path d="M433 189L509 294L609 228Z" fill="#2c2b36" stroke="#f6f0f9"></path><path d="M509 294L416 287L487 325Z" fill="#2d2c38" stroke="#f6f0f9"></path><path d="M908 0L695 0L783 124Z" fill="#2e2d3a" stroke="#f6f0f9"></path><path d="M1510 174L1475 139L1419 182Z" fill="#2e2f3c" stroke="#f6f0f9"></path><path d="M1326 1080L1390 991L1333 993Z" fill="#2e2d3a" stroke="#f6f0f9"></path><path d="M1333 993L1390 991L1371 841Z" fill="#30303f" stroke="#f6f0f9"></path><path d="M1613 331L1564 289L1556 345Z" fill="#30303f" stroke="#f6f0f9"></path><path d="M1556 345L1564 289L1399 287Z" fill="#2d2c38" stroke="#f6f0f9"></path><path d="M553 982L671 929L664 924Z" fill="#2e2e3b" stroke="#f6f0f9"></path><path d="M1464 0L1459 110L1520 0Z" fill="#2e2d3a" stroke="#f6f0f9"></path><path d="M1475 139L1459 110L1419 182Z" fill="#2e2e3b" stroke="#f6f0f9"></path><path d="M1564 289L1510 174L1399 287Z" fill="#2d2d39" stroke="#f6f0f9"></path><path d="M1680 554L1518 508L1526 635Z" fill="#30303f" stroke="#f6f0f9"></path><path d="M1390 991L1504 889L1415 856Z" fill="#2d2d39" stroke="#f6f0f9"></path><path d="M1631 744L1620 665L1549 682Z" fill="#2f303e" stroke="#f6f0f9"></path><path d="M1549 682L1620 665L1526 635Z" fill="#30303f" stroke="#f6f0f9"></path><path d="M534 64L609 228L644 122Z" fill="#2f2f3d" stroke="#f6f0f9"></path><path d="M487 325L416 287L467 389Z" fill="#30303f" stroke="#f6f0f9"></path><path d="M336 448L468 562L476 492Z" fill="#30303f" stroke="#f6f0f9"></path><path d="M1631 744L1549 682L1622 770Z" fill="#2c2c37" stroke="#f6f0f9"></path><path d="M1464 0L1404 25L1459 110Z" fill="#2e2f3c" stroke="#f6f0f9"></path><path d="M1459 110L1404 25L1324 47Z" fill="#2d2d39" stroke="#f6f0f9"></path><path d="M512 857L553 982L664 924Z" fill="#2f2f3d" stroke="#f6f0f9"></path><path d="M419 915L553 982L512 857Z" fill="#2e2f3c" stroke="#f6f0f9"></path><path d="M612 1080L682 1080L671 929Z" fill="#30303f" stroke="#f6f0f9"></path><path d="M1618 454L1613 331L1556 345Z" fill="#30303f" stroke="#f6f0f9"></path><path d="M1564 289L1565 209L1510 174Z" fill="#2c2b36" stroke="#f6f0f9"></path><path d="M1591 211L1565 209L1564 289Z" fill="#30303f" stroke="#f6f0f9"></path><path d="M1520 0L1459 110L1475 139Z" fill="#2c2c37" stroke="#f6f0f9"></path><path d="M1222 1080L1326 1080L1278 1003Z" fill="#2c2c37" stroke="#f6f0f9"></path><path d="M1557 984L1577 938L1504 889Z" fill="#2f303e" stroke="#f6f0f9"></path><path d="M336 448L476 492L467 389Z" fill="#30303f" stroke="#f6f0f9"></path><path d="M428 687L373 761L477 822Z" fill="#2e2d3a" stroke="#f6f0f9"></path><path d="M477 822L419 915L512 857Z" fill="#2d2c38" stroke="#f6f0f9"></path><path d="M588 0L644 122L667 105Z" fill="#2d2c38" stroke="#f6f0f9"></path><path d="M330 333L368 348L416 287Z" fill="#2d2c38" stroke="#f6f0f9"></path><path d="M416 287L368 348L467 389Z" fill="#2e2f3c" stroke="#f6f0f9"></path><path d="M534 64L433 189L609 228Z" fill="#2f2f3d" stroke="#f6f0f9"></path><path d="M318 758L355 678L222 703Z" fill="#2f303e" stroke="#f6f0f9"></path><path d="M359 622L355 678L428 687Z" fill="#2c2c37" stroke="#f6f0f9"></path><path d="M695 0L588 0L667 105Z" fill="#2e2e3b" stroke="#f6f0f9"></path><path d="M368 348L342 413L467 389Z" fill="#2e2f3c" stroke="#f6f0f9"></path><path d="M342 413L336 448L467 389Z" fill="#2e2e3b" stroke="#f6f0f9"></path><path d="M1640 227L1591 211L1564 289Z" fill="#2f303e" stroke="#f6f0f9"></path><path d="M1565 209L1645 100L1510 174Z" fill="#2e2d3a" stroke="#f6f0f9"></path><path d="M1622 770L1549 682L1482 833Z" fill="#2f303e" stroke="#f6f0f9"></path><path d="M1711 480L1671 423L1618 454Z" fill="#2c2c37" stroke="#f6f0f9"></path><path d="M1618 454L1671 423L1613 331Z" fill="#2f2f3d" stroke="#f6f0f9"></path><path d="M355 678L373 761L428 687Z" fill="#2e2d3a" stroke="#f6f0f9"></path><path d="M1617 868L1622 770L1482 833Z" fill="#303140" stroke="#f6f0f9"></path><path d="M1653 744L1622 770L1745 777Z" fill="#2e2d3a" stroke="#f6f0f9"></path><path d="M318 758L369 764L373 761Z" fill="#2d2d39" stroke="#f6f0f9"></path><path d="M373 761L363 818L477 822Z" fill="#30303f" stroke="#f6f0f9"></path><path d="M1680 554L1526 635L1620 665Z" fill="#2d2d39" stroke="#f6f0f9"></path><path d="M1613 331L1640 227L1564 289Z" fill="#2c2b36" stroke="#f6f0f9"></path><path d="M504 1080L612 1080L553 982Z" fill="#2c2b36" stroke="#f6f0f9"></path><path d="M553 982L612 1080L671 929Z" fill="#2e2e3b" stroke="#f6f0f9"></path><path d="M1745 593L1680 554L1620 665Z" fill="#30303f" stroke="#f6f0f9"></path><path d="M1622 770L1653 744L1631 744Z" fill="#2d2d39" stroke="#f6f0f9"></path><path d="M1631 744L1653 744L1620 665Z" fill="#2c2c37" stroke="#f6f0f9"></path><path d="M1617 868L1482 833L1504 889Z" fill="#2e2d3a" stroke="#f6f0f9"></path><path d="M588 0L541 0L534 64Z" fill="#2f303e" stroke="#f6f0f9"></path><path d="M365 97L368 147L433 189Z" fill="#2f303e" stroke="#f6f0f9"></path><path d="M368 348L330 333L342 413Z" fill="#2d2c38" stroke="#f6f0f9"></path><path d="M342 413L269 473L336 448Z" fill="#2f2f3d" stroke="#f6f0f9"></path><path d="M368 147L330 333L416 287Z" fill="#2e2f3c" stroke="#f6f0f9"></path><path d="M368 147L416 287L433 189Z" fill="#2d2c38" stroke="#f6f0f9"></path><path d="M1326 1080L1419 1080L1390 991Z" fill="#2d2c38" stroke="#f6f0f9"></path><path d="M541 0L534 0L534 64Z" fill="#2e2d3a" stroke="#f6f0f9"></path><path d="M1520 0L1475 139L1645 100Z" fill="#2d2c38" stroke="#f6f0f9"></path><path d="M1404 25L1464 0L1297 0Z" fill="#2e2d3a" stroke="#f6f0f9"></path><path d="M363 818L419 915L477 822Z" fill="#2d2d39" stroke="#f6f0f9"></path><path d="M318 758L363 818L369 764Z" fill="#2e2f3c" stroke="#f6f0f9"></path><path d="M369 764L363 818L373 761Z" fill="#2d2c38" stroke="#f6f0f9"></path><path d="M318 758L373 761L355 678Z" fill="#2e2e3b" stroke="#f6f0f9"></path><path d="M1805 296L1640 227L1613 331Z" fill="#2d2c38" stroke="#f6f0f9"></path><path d="M1645 100L1475 139L1510 174Z" fill="#303140" stroke="#f6f0f9"></path><path d="M1605 891L1617 868L1504 889Z" fill="#2e2d3a" stroke="#f6f0f9"></path><path d="M1577 938L1605 891L1504 889Z" fill="#2e2e3b" stroke="#f6f0f9"></path><path d="M1557 984L1504 889L1390 991Z" fill="#2c2c37" stroke="#f6f0f9"></path><path d="M1745 593L1711 480L1680 554Z" fill="#2d2c38" stroke="#f6f0f9"></path><path d="M1680 554L1711 480L1618 454Z" fill="#2c2b36" stroke="#f6f0f9"></path><path d="M1805 296L1688 151L1640 227Z" fill="#2d2d39" stroke="#f6f0f9"></path><path d="M534 0L495 16L534 64Z" fill="#2e2d3a" stroke="#f6f0f9"></path><path d="M229 603L355 678L359 622Z" fill="#2f303e" stroke="#f6f0f9"></path><path d="M363 818L371 945L419 915Z" fill="#2e2f3c" stroke="#f6f0f9"></path><path d="M269 473L359 622L336 448Z" fill="#2c2c37" stroke="#f6f0f9"></path><path d="M1419 1080L1557 984L1390 991Z" fill="#2d2c38" stroke="#f6f0f9"></path><path d="M1577 938L1610 952L1605 891Z" fill="#2f2f3d" stroke="#f6f0f9"></path><path d="M1605 891L1750 922L1617 868Z" fill="#2c2c37" stroke="#f6f0f9"></path><path d="M330 333L269 473L342 413Z" fill="#30303f" stroke="#f6f0f9"></path><path d="M365 97L433 189L534 64Z" fill="#2e2d3a" stroke="#f6f0f9"></path><path d="M330 333L160 351L269 473Z" fill="#2c2b36" stroke="#f6f0f9"></path><path d="M1645 100L1565 209L1591 211Z" fill="#2c2c37" stroke="#f6f0f9"></path><path d="M433 1035L504 1080L553 982Z" fill="#303140" stroke="#f6f0f9"></path><path d="M433 1035L553 982L419 915Z" fill="#30303f" stroke="#f6f0f9"></path><path d="M1655 1080L1610 952L1557 984Z" fill="#2e2e3b" stroke="#f6f0f9"></path><path d="M1557 984L1610 952L1577 938Z" fill="#2e2e3b" stroke="#f6f0f9"></path><path d="M1745 777L1750 692L1653 744Z" fill="#2f303e" stroke="#f6f0f9"></path><path d="M1750 692L1745 593L1620 665Z" fill="#2e2d3a" stroke="#f6f0f9"></path><path d="M1750 692L1620 665L1653 744Z" fill="#2d2d39" stroke="#f6f0f9"></path><path d="M1688 151L1591 211L1640 227Z" fill="#2e2f3c" stroke="#f6f0f9"></path><path d="M266 857L371 945L363 818Z" fill="#2e2f3c" stroke="#f6f0f9"></path><path d="M495 16L365 97L534 64Z" fill="#2f2f3d" stroke="#f6f0f9"></path><path d="M368 147L216 258L330 333Z" fill="#2e2e3b" stroke="#f6f0f9"></path><path d="M371 945L433 1035L419 915Z" fill="#2f303e" stroke="#f6f0f9"></path><path d="M1745 777L1622 770L1617 868Z" fill="#2f303e" stroke="#f6f0f9"></path><path d="M1688 151L1645 100L1591 211Z" fill="#303140" stroke="#f6f0f9"></path><path d="M1613 331L1671 423L1792 361Z" fill="#2e2d3a" stroke="#f6f0f9"></path><path d="M171 546L229 603L269 473Z" fill="#2d2d39" stroke="#f6f0f9"></path><path d="M269 473L229 603L359 622Z" fill="#2e2d3a" stroke="#f6f0f9"></path><path d="M318 758L266 857L363 818Z" fill="#2e2f3c" stroke="#f6f0f9"></path><path d="M1792 361L1671 423L1711 480Z" fill="#2e2e3b" stroke="#f6f0f9"></path><path d="M1419 1080L1554 1080L1557 984Z" fill="#2e2e3b" stroke="#f6f0f9"></path><path d="M1754 872L1745 777L1617 868Z" fill="#2d2d39" stroke="#f6f0f9"></path><path d="M1761 766L1745 777L1754 872Z" fill="#2d2c38" stroke="#f6f0f9"></path><path d="M229 603L222 703L355 678Z" fill="#2e2d3a" stroke="#f6f0f9"></path><path d="M1754 872L1617 868L1750 922Z" fill="#2e2f3c" stroke="#f6f0f9"></path><path d="M1745 777L1761 766L1750 692Z" fill="#2d2c38" stroke="#f6f0f9"></path><path d="M1819 554L1711 480L1745 593Z" fill="#2d2d39" stroke="#f6f0f9"></path><path d="M343 1080L293 1033L330 1080Z" fill="#2e2f3c" stroke="#f6f0f9"></path><path d="M371 945L395 1048L433 1035Z" fill="#2f2f3d" stroke="#f6f0f9"></path><path d="M433 1035L395 1048L504 1080Z" fill="#2e2d3a" stroke="#f6f0f9"></path><path d="M222 703L266 857L318 758Z" fill="#2c2b36" stroke="#f6f0f9"></path><path d="M1877 507L1792 361L1711 480Z" fill="#2f303e" stroke="#f6f0f9"></path><path d="M1792 712L1745 593L1750 692Z" fill="#2e2e3b" stroke="#f6f0f9"></path><path d="M495 16L374 0L365 97Z" fill="#2d2d39" stroke="#f6f0f9"></path><path d="M204 234L216 258L368 147Z" fill="#2c2c37" stroke="#f6f0f9"></path><path d="M534 0L374 0L495 16Z" fill="#2c2c37" stroke="#f6f0f9"></path><path d="M1761 766L1792 712L1750 692Z" fill="#303140" stroke="#f6f0f9"></path><path d="M374 0L366 0L365 97Z" fill="#2f2f3d" stroke="#f6f0f9"></path><path d="M1792 712L1819 554L1745 593Z" fill="#2f303e" stroke="#f6f0f9"></path><path d="M1688 151L1715 116L1645 100Z" fill="#2c2c37" stroke="#f6f0f9"></path><path d="M1645 100L1690 0L1520 0Z" fill="#2c2c37" stroke="#f6f0f9"></path><path d="M1809 171L1715 116L1688 151Z" fill="#2c2b36" stroke="#f6f0f9"></path><path d="M204 234L368 147L225 99Z" fill="#2e2e3b" stroke="#f6f0f9"></path><path d="M229 603L154 699L222 703Z" fill="#2c2c37" stroke="#f6f0f9"></path><path d="M131 412L171 546L269 473Z" fill="#2c2c37" stroke="#f6f0f9"></path><path d="M222 703L165 862L266 857Z" fill="#2c2b36" stroke="#f6f0f9"></path><path d="M1761 766L1920 722L1792 712Z" fill="#2e2e3b" stroke="#f6f0f9"></path><path d="M1750 922L1605 891L1610 952Z" fill="#30303f" stroke="#f6f0f9"></path><path d="M1920 339L1805 296L1792 361Z" fill="#303140" stroke="#f6f0f9"></path><path d="M1792 361L1805 296L1613 331Z" fill="#30303f" stroke="#f6f0f9"></path><path d="M225 99L368 147L365 97Z" fill="#303140" stroke="#f6f0f9"></path><path d="M216 258L160 351L330 333Z" fill="#2d2c38" stroke="#f6f0f9"></path><path d="M1719 1075L1750 922L1610 952Z" fill="#2d2d39" stroke="#f6f0f9"></path><path d="M1920 722L1920 635L1792 712Z" fill="#2f303e" stroke="#f6f0f9"></path><path d="M145 292L160 351L216 258Z" fill="#2e2e3b" stroke="#f6f0f9"></path><path d="M343 1080L395 1048L293 1033Z" fill="#2d2d39" stroke="#f6f0f9"></path><path d="M395 1048L343 1080L504 1080Z" fill="#30303f" stroke="#f6f0f9"></path><path d="M1554 1080L1655 1080L1557 984Z" fill="#2e2d3a" stroke="#f6f0f9"></path><path d="M127 729L154 699L34 594Z" fill="#2e2e3b" stroke="#f6f0f9"></path><path d="M171 546L154 699L229 603Z" fill="#2c2b36" stroke="#f6f0f9"></path><path d="M293 1033L395 1048L371 945Z" fill="#30303f" stroke="#f6f0f9"></path><path d="M1691 0L1645 100L1715 116Z" fill="#2e2e3b" stroke="#f6f0f9"></path><path d="M1691 0L1690 0L1645 100Z" fill="#2e2e3b" stroke="#f6f0f9"></path><path d="M1756 79L1691 0L1715 116Z" fill="#2d2c38" stroke="#f6f0f9"></path><path d="M293 1033L371 945L266 857Z" fill="#2e2d3a" stroke="#f6f0f9"></path><path d="M165 862L293 1033L266 857Z" fill="#30303f" stroke="#f6f0f9"></path><path d="M113 370L131 412L160 351Z" fill="#2e2f3c" stroke="#f6f0f9"></path><path d="M160 351L131 412L269 473Z" fill="#2e2e3b" stroke="#f6f0f9"></path><path d="M1809 171L1756 79L1715 116Z" fill="#2e2e3b" stroke="#f6f0f9"></path><path d="M1920 635L1877 507L1819 554Z" fill="#2f2f3d" stroke="#f6f0f9"></path><path d="M1819 554L1877 507L1711 480Z" fill="#2f2f3d" stroke="#f6f0f9"></path><path d="M1805 296L1809 171L1688 151Z" fill="#2d2c38" stroke="#f6f0f9"></path><path d="M1920 481L1877 507L1920 635Z" fill="#2e2f3c" stroke="#f6f0f9"></path><path d="M272 12L225 99L365 97Z" fill="#30303f" stroke="#f6f0f9"></path><path d="M147 272L145 292L216 258Z" fill="#2f2f3d" stroke="#f6f0f9"></path><path d="M1920 233L1809 171L1805 296Z" fill="#2e2e3b" stroke="#f6f0f9"></path><path d="M147 272L216 258L204 234Z" fill="#30303f" stroke="#f6f0f9"></path><path d="M157 165L147 272L204 234Z" fill="#2e2d3a" stroke="#f6f0f9"></path><path d="M145 292L113 370L160 351Z" fill="#2d2c38" stroke="#f6f0f9"></path><path d="M366 0L272 12L365 97Z" fill="#2d2c38" stroke="#f6f0f9"></path><path d="M34 594L154 699L171 546Z" fill="#2f2f3d" stroke="#f6f0f9"></path><path d="M154 699L127 729L222 703Z" fill="#2d2d39" stroke="#f6f0f9"></path><path d="M0 356L113 370L0 324Z" fill="#2d2d39" stroke="#f6f0f9"></path><path d="M13 502L34 594L171 546Z" fill="#2d2c38" stroke="#f6f0f9"></path><path d="M120 755L165 862L222 703Z" fill="#2d2d39" stroke="#f6f0f9"></path><path d="M1920 481L1900 438L1877 507Z" fill="#2c2b36" stroke="#f6f0f9"></path><path d="M1877 507L1900 438L1792 361Z" fill="#2e2d3a" stroke="#f6f0f9"></path><path d="M1655 1080L1719 1075L1610 952Z" fill="#2d2c38" stroke="#f6f0f9"></path><path d="M1920 635L1819 554L1792 712Z" fill="#2e2f3c" stroke="#f6f0f9"></path><path d="M0 755L120 755L127 729Z" fill="#2f303e" stroke="#f6f0f9"></path><path d="M127 729L120 755L222 703Z" fill="#2c2c37" stroke="#f6f0f9"></path><path d="M80 118L157 165L225 99Z" fill="#2f2f3d" stroke="#f6f0f9"></path><path d="M225 99L157 165L204 234Z" fill="#2d2d39" stroke="#f6f0f9"></path><path d="M0 356L131 412L113 370Z" fill="#2c2b36" stroke="#f6f0f9"></path><path d="M1761 766L1920 916L1920 722Z" fill="#2e2d3a" stroke="#f6f0f9"></path><path d="M1900 438L1920 339L1792 361Z" fill="#2d2d39" stroke="#f6f0f9"></path><path d="M1920 481L1920 458L1900 438Z" fill="#2e2d3a" stroke="#f6f0f9"></path><path d="M1807 0L1778 23L1920 104Z" fill="#2e2f3c" stroke="#f6f0f9"></path><path d="M1756 79L1778 23L1691 0Z" fill="#303140" stroke="#f6f0f9"></path><path d="M1778 23L1756 79L1920 104Z" fill="#30303f" stroke="#f6f0f9"></path><path d="M366 0L232 0L272 12Z" fill="#2d2c38" stroke="#f6f0f9"></path><path d="M272 12L232 0L225 99Z" fill="#2d2c38" stroke="#f6f0f9"></path><path d="M1761 766L1754 872L1920 916Z" fill="#2c2c37" stroke="#f6f0f9"></path><path d="M1920 458L1920 339L1900 438Z" fill="#303140" stroke="#f6f0f9"></path><path d="M1888 959L1754 872L1750 922Z" fill="#2e2f3c" stroke="#f6f0f9"></path><path d="M109 1036L293 1033L165 862Z" fill="#2d2c38" stroke="#f6f0f9"></path><path d="M109 1036L234 1080L293 1033Z" fill="#2d2c38" stroke="#f6f0f9"></path><path d="M293 1033L234 1080L330 1080Z" fill="#2d2c38" stroke="#f6f0f9"></path><path d="M1655 1080L1767 1080L1719 1075Z" fill="#2f303e" stroke="#f6f0f9"></path><path d="M1719 1075L1767 1080L1750 922Z" fill="#2c2b36" stroke="#f6f0f9"></path><path d="M1920 104L1756 79L1809 171Z" fill="#2f303e" stroke="#f6f0f9"></path><path d="M1778 23L1807 0L1691 0Z" fill="#2c2b36" stroke="#f6f0f9"></path><path d="M1920 339L1920 233L1805 296Z" fill="#2d2c38" stroke="#f6f0f9"></path><path d="M1767 1080L1788 1080L1750 922Z" fill="#2e2f3c" stroke="#f6f0f9"></path><path d="M13 502L171 546L131 412Z" fill="#2f2f3d" stroke="#f6f0f9"></path><path d="M120 755L87 858L165 862Z" fill="#30303f" stroke="#f6f0f9"></path><path d="M13 502L131 412L0 356Z" fill="#2e2d3a" stroke="#f6f0f9"></path><path d="M1920 233L1920 213L1809 171Z" fill="#2e2f3c" stroke="#f6f0f9"></path><path d="M0 793L87 858L120 755Z" fill="#30303f" stroke="#f6f0f9"></path><path d="M232 0L171 0L225 99Z" fill="#2c2b36" stroke="#f6f0f9"></path><path d="M113 370L145 292L0 324Z" fill="#2d2d39" stroke="#f6f0f9"></path><path d="M0 517L13 502L0 356Z" fill="#2e2e3b" stroke="#f6f0f9"></path><path d="M0 907L74 896L87 858Z" fill="#303140" stroke="#f6f0f9"></path><path d="M1788 1080L1888 959L1750 922Z" fill="#2e2d3a" stroke="#f6f0f9"></path><path d="M0 755L127 729L34 594Z" fill="#30303f" stroke="#f6f0f9"></path><path d="M87 858L74 896L165 862Z" fill="#2e2f3c" stroke="#f6f0f9"></path><path d="M80 118L147 272L157 165Z" fill="#2f2f3d" stroke="#f6f0f9"></path><path d="M13 502L0 547L34 594Z" fill="#2f2f3d" stroke="#f6f0f9"></path><path d="M0 517L0 547L13 502Z" fill="#2c2b36" stroke="#f6f0f9"></path><path d="M0 547L0 556L34 594Z" fill="#2e2d3a" stroke="#f6f0f9"></path><path d="M1888 959L1920 916L1754 872Z" fill="#2e2f3c" stroke="#f6f0f9"></path><path d="M171 0L80 118L225 99Z" fill="#2c2c37" stroke="#f6f0f9"></path><path d="M1920 213L1920 104L1809 171Z" fill="#2c2c37" stroke="#f6f0f9"></path><path d="M0 324L145 292L147 272Z" fill="#2e2d3a" stroke="#f6f0f9"></path><path d="M1920 1080L1920 949L1888 959Z" fill="#2e2f3c" stroke="#f6f0f9"></path><path d="M1888 959L1920 949L1920 916Z" fill="#2c2b36" stroke="#f6f0f9"></path><path d="M0 140L0 324L147 272Z" fill="#2f2f3d" stroke="#f6f0f9"></path><path d="M0 556L0 755L34 594Z" fill="#2d2c38" stroke="#f6f0f9"></path><path d="M52 1023L109 1036L74 896Z" fill="#2c2b36" stroke="#f6f0f9"></path><path d="M74 896L109 1036L165 862Z" fill="#2e2f3c" stroke="#f6f0f9"></path><path d="M0 755L0 793L120 755Z" fill="#2c2c37" stroke="#f6f0f9"></path><path d="M1920 104L1920 0L1807 0Z" fill="#2e2e3b" stroke="#f6f0f9"></path><path d="M0 114L0 140L80 118Z" fill="#2c2b36" stroke="#f6f0f9"></path><path d="M80 118L0 140L147 272Z" fill="#2c2c37" stroke="#f6f0f9"></path><path d="M0 793L0 907L87 858Z" fill="#303140" stroke="#f6f0f9"></path><path d="M0 986L52 1023L74 896Z" fill="#2d2c38" stroke="#f6f0f9"></path><path d="M109 1036L33 1080L234 1080Z" fill="#2e2d3a" stroke="#f6f0f9"></path><path d="M1788 1080L1920 1080L1888 959Z" fill="#2f2f3d" stroke="#f6f0f9"></path><path d="M0 0L0 114L80 118Z" fill="#2d2d39" stroke="#f6f0f9"></path><path d="M0 907L0 986L74 896Z" fill="#2e2f3c" stroke="#f6f0f9"></path><path d="M0 1080L33 1080L52 1023Z" fill="#2d2c38" stroke="#f6f0f9"></path><path d="M52 1023L33 1080L109 1036Z" fill="#2e2e3b" stroke="#f6f0f9"></path><path d="M171 0L0 0L80 118Z" fill="#2c2c37" stroke="#f6f0f9"></path><path d="M0 986L0 1080L52 1023Z" fill="#2e2f3c" stroke="#f6f0f9"></path></g></svg>