<?xml version="1.0" standalone="no"?>
<!DOCTYPE svg PUBLIC "-//W3C//DTD SVG 20010904//EN"
 "http://www.w3.org/TR/2001/REC-SVG-20010904/DTD/svg10.dtd">
<svg version="1.0" xmlns="http://www.w3.org/2000/svg"
 width="800.000000pt" height="720.000000pt" viewBox="0 0 800.000000 720.000000"
 preserveAspectRatio="xMidYMid meet">

<g transform="translate(0.000000,720.000000) scale(0.100000,-0.100000)"
fill="#000000" stroke="none">
<path d="M3515 6945 c-262 -29 -554 -96 -703 -163 -154 -69 -445 -243 -553
-332 -251 -206 -592 -756 -679 -1095 -16 -63 -33 -79 -25 -25 12 91 83 316
132 420 97 206 212 381 371 563 167 190 520 431 812 553 30 13 50 23 44 24
-17 0 -179 -63 -241 -94 -28 -14 -55 -26 -60 -26 -5 0 -31 -14 -59 -32 -27
-18 -69 -42 -94 -55 -122 -63 -376 -275 -471 -393 -20 -25 -49 -56 -64 -70
-15 -14 -35 -41 -45 -61 -10 -19 -26 -42 -36 -50 -22 -18 -64 -85 -64 -102 0
-7 -11 -24 -24 -36 -13 -13 -34 -46 -46 -74 -13 -29 -31 -64 -41 -79 -23 -32
-75 -152 -100 -233 -10 -33 -27 -87 -38 -120 -32 -101 -51 -197 -51 -255 0
-88 -17 -173 -39 -190 -23 -19 -31 -117 -37 -433 -3 -191 -6 -223 -22 -250
-16 -27 -24 -32 -58 -32 -25 0 -51 -9 -72 -23 -29 -21 -36 -21 -33 0 0 4 -4
19 -9 32 -7 19 -5 29 6 41 14 14 14 18 1 38 -8 12 -30 31 -50 41 -34 19 -35
19 -62 -2 -15 -12 -41 -22 -57 -22 -34 0 -47 -24 -29 -52 7 -11 9 -28 6 -39
-5 -13 3 -28 24 -49 39 -39 63 -40 55 -2 -7 32 14 56 40 46 25 -10 22 -74 -5
-81 -16 -5 -19 -12 -17 -41 3 -30 12 -43 57 -77 56 -43 80 -80 61 -99 -7 -7
-20 0 -43 22 -37 36 -64 44 -48 14 5 -10 8 -43 6 -73 -23 -297 -27 -455 -16
-590 26 -312 93 -531 207 -686 70 -93 145 -164 204 -192 47 -22 68 -26 145
-25 92 0 240 19 282 35 21 8 23 14 23 76 -1 152 -50 276 -144 361 -34 31 -34
31 -40 144 -3 62 -8 195 -10 295 l-5 181 27 35 c15 19 32 43 38 53 5 9 15 14
21 11 16 -10 53 -79 97 -182 21 -49 56 -124 76 -166 21 -42 50 -110 65 -150
16 -41 34 -83 42 -95 7 -11 57 -46 110 -79 54 -32 109 -70 124 -86 14 -15 37
-30 50 -33 13 -3 36 -7 51 -10 20 -5 27 -13 30 -34 2 -22 14 -33 63 -57 69
-35 135 -83 135 -98 0 -5 15 -28 33 -51 93 -114 227 -330 287 -465 74 -165
110 -302 141 -536 32 -245 117 -433 259 -575 78 -79 310 -245 422 -301 58 -30
216 -91 413 -159 44 -15 116 -48 160 -74 139 -80 234 -84 374 -16 169 82 285
195 321 315 22 73 41 100 105 150 72 56 245 239 289 306 70 105 96 116 167 77
36 -21 40 -26 35 -55 -2 -18 -21 -73 -41 -122 -20 -50 -39 -113 -42 -140 l-6
-49 54 -20 c30 -11 113 -43 186 -70 72 -28 146 -53 165 -57 18 -4 65 -22 103
-40 75 -36 175 -69 241 -79 31 -6 45 -3 61 11 42 37 123 216 243 538 45 122
80 215 135 355 23 57 84 225 118 323 30 88 32 99 33 267 2 96 4 184 6 195 2
11 -3 21 -12 22 -12 3 -15 -8 -15 -49 -1 -72 -12 -108 -32 -108 -23 0 -206 72
-216 85 -11 14 1 106 18 132 12 18 12 22 -1 27 -9 3 -17 6 -19 6 -1 0 -5 -17
-9 -37 -11 -68 -27 -113 -40 -113 -14 0 -271 95 -354 130 -59 25 -72 46 -72
111 0 21 -4 39 -9 39 -10 0 -27 -39 -37 -85 -4 -16 -23 -64 -42 -105 -27 -57
-36 -70 -39 -53 -3 12 5 43 16 69 12 26 21 58 21 72 l0 25 -23 -21 c-31 -29
-57 -29 -57 1 0 31 64 136 99 164 33 26 50 62 59 129 l7 49 73 3 c55 2 74 7
79 18 8 21 -14 34 -56 34 -29 0 -262 73 -418 132 -59 22 -69 38 -24 38 39 0
44 10 23 51 -17 34 -32 44 -180 121 -47 24 -61 36 -55 48 3 8 6 27 6 43 0 15
4 27 9 27 12 0 101 -45 181 -93 51 -30 71 -37 80 -28 31 31 91 -7 103 -67 4
-18 11 -35 16 -38 7 -4 7 6 3 27 -5 19 -9 54 -10 79 -1 25 -5 101 -10 170 l-7
125 41 25 c108 65 181 212 196 392 11 136 -9 212 -104 388 -17 30 -37 89 -47
130 -25 117 -52 191 -89 245 -31 46 -155 285 -155 299 0 23 -108 221 -117 213
-3 -3 12 -41 32 -84 21 -43 59 -126 86 -185 45 -100 101 -201 163 -292 27 -41
32 -78 16 -120 -6 -17 -6 -35 0 -51 13 -33 2 -32 -62 7 -31 18 -108 47 -182
67 -71 20 -131 41 -133 48 -3 7 12 22 31 35 46 30 50 77 10 119 -33 34 -27 59
13 51 39 -7 25 5 -49 42 -50 25 -71 42 -100 86 -20 30 -41 73 -48 95 -30 106
-137 354 -251 585 -131 266 -285 553 -326 606 -24 32 -236 180 -411 289 -51
31 -91 59 -89 61 13 13 199 -77 367 -176 120 -71 190 -103 252 -114 20 -4 60
-25 88 -47 43 -34 54 -38 81 -32 l30 8 -29 44 c-73 109 -181 189 -407 304
-163 83 -446 207 -472 207 -12 0 -46 9 -75 19 -96 35 -222 71 -301 86 -96 18
-322 18 -492 0z m-1745 -1365 c11 -7 5 -10 -22 -10 -21 0 -38 5 -38 10 0 13
40 13 60 0z m-229 -366 c-5 -21 -9 -30 -10 -19 -1 24 10 67 15 62 3 -2 0 -22
-5 -43z m1508 -558 c-20 -19 -59 -30 -59 -16 0 11 62 42 69 34 3 -2 -2 -11
-10 -18z m2491 -232 c0 -42 -5 -94 -12 -116 -17 -58 -79 -123 -135 -142 -55
-19 -233 -22 -266 -5 -29 15 -157 140 -157 154 0 9 13 19 99 72 20 12 68 29
106 38 39 9 104 27 145 40 97 31 105 32 168 34 l52 1 0 -76z m-2498 -41 c-45
-45 -82 -95 -109 -148 -52 -98 -58 -68 -8 33 24 48 55 88 96 126 85 79 102 70
21 -11z m1059 -8 c109 -40 133 -62 149 -138 19 -94 -7 -125 -96 -111 -81 12
-180 111 -203 202 -25 102 -27 95 17 89 21 -4 81 -22 133 -42z m481 -47 c-7
-7 -12 -8 -12 -2 0 6 3 14 7 17 3 4 9 5 12 2 2 -3 -1 -11 -7 -17z m-218 -10
c22 -31 21 -61 0 -33 -9 11 -20 28 -25 38 -14 25 7 22 25 -5z m387 -21 c-10
-9 -11 -8 -5 6 3 10 9 15 12 12 3 -3 0 -11 -7 -18z m-3414 -89 c27 -25 29 -38
6 -38 -20 0 -53 28 -53 47 0 20 21 16 47 -9z m-87 -70 c0 -31 -3 -33 -31 -18
-22 12 -27 65 -6 73 17 7 37 -22 37 -55z m320 53 c0 -10 -66 -51 -82 -51 -15
0 22 41 47 51 27 11 35 11 35 0z m3960 -26 c71 -37 68 -137 -4 -151 -49 -9
-73 2 -86 41 -9 27 -8 41 5 71 23 57 38 63 85 39z m-1963 -50 c13 -9 27 -34
33 -56 15 -56 -6 -89 -56 -89 -48 0 -84 37 -84 85 0 63 57 95 107 60z m2233
-32 c0 -28 -58 -143 -75 -149 -29 -12 -28 5 4 54 17 27 31 51 31 55 0 3 4 17
10 31 11 30 30 35 30 9z m-1800 -48 c0 -51 -65 -150 -108 -166 -35 -13 -92 -3
-92 17 0 8 18 50 40 94 l40 80 60 0 c58 0 60 -1 60 -25z m376 -113 c-18 -16
-18 -16 -6 6 6 13 14 21 18 18 3 -4 -2 -14 -12 -24z m-2837 -56 c38 -20 99
-101 112 -150 16 -60 7 -273 -13 -312 -27 -49 -43 -59 -78 -44 -17 7 -40 26
-51 42 -31 44 -51 179 -47 325 3 110 5 126 22 139 24 17 21 17 55 0z m542
-176 c10 -6 19 -17 19 -24 0 -22 -31 -28 -51 -10 -37 34 -14 58 32 34z m-687
-102 c11 -42 7 -88 -8 -88 -16 0 -26 30 -26 78 0 37 24 45 34 10z m2471 -14
c-11 -8 -31 -18 -45 -21 -40 -9 -52 -23 -45 -54 5 -22 1 -31 -22 -47 -96 -68
-391 -169 -409 -141 -3 5 3 12 13 15 67 23 133 61 174 99 48 45 109 78 249
134 84 33 117 39 85 15z m1468 -309 c107 -24 187 -58 195 -82 6 -20 -64 -16
-180 11 -57 13 -120 27 -140 31 -38 6 -44 17 -32 49 8 21 30 20 157 -9z m432
-15 c3 -5 13 -10 21 -10 21 0 94 -51 94 -65 0 -18 -12 -21 -66 -16 -47 3 -53
10 -70 76 -6 25 9 35 21 15z m-663 -17 c67 -6 68 -6 93 -49 29 -49 34 -124 10
-144 -17 -14 -72 -9 -274 25 -101 17 -138 27 -148 41 -18 25 -13 36 30 59 20
11 37 23 37 28 0 4 -21 8 -47 8 -27 1 -61 5 -78 9 l-30 7 25 6 c59 15 270 21
382 10z m598 -179 c0 -19 -16 -18 -24 2 -11 27 -7 37 9 24 8 -7 15 -19 15 -26z
m138 -144 c3 -21 2 -22 -12 -11 -19 16 -21 44 -3 39 6 -3 14 -15 15 -28z
m-2080 -42 c2 -17 -3 -28 -14 -32 -27 -10 -39 9 -26 40 15 31 36 27 40 -8z
m1662 -44 c88 -54 164 -114 155 -122 -3 -4 -9 -2 -13 4 -11 15 -140 105 -197
136 -27 15 -43 28 -35 28 9 0 49 -21 90 -46z m-1872 4 c-10 -72 -349 -142
-519 -109 -70 14 -139 39 -139 51 0 4 73 10 163 13 147 5 325 29 412 56 17 5
43 10 58 10 24 1 28 -3 25 -21z m1098 3 c-4 -5 -43 -34 -89 -64 -112 -75 -215
-172 -272 -256 -51 -75 -75 -94 -75 -60 0 78 177 264 326 342 86 45 121 57
110 38z m-362 -68 c-10 -16 -35 -58 -57 -95 -37 -66 -62 -83 -73 -54 -8 21 18
64 73 124 54 57 88 72 57 25z m-2614 -15 c0 -16 -3 -19 -11 -11 -6 6 -8 16 -5
22 11 17 16 13 16 -11z m288 -5 c2 -8 -5 -13 -17 -13 -12 0 -21 6 -21 16 0 18
31 15 38 -3z m-98 -3 c0 -22 -31 -70 -45 -70 -15 0 -19 11 -15 40 3 28 60 56
60 30z m2850 -19 c0 -10 10 -25 22 -33 20 -13 20 -16 7 -35 -8 -12 -48 -47
-89 -78 -97 -74 -145 -121 -237 -227 -67 -79 -103 -106 -103 -78 0 5 -13 16
-30 25 -38 20 -38 33 2 109 58 111 250 284 358 323 50 18 70 16 70 -6z m618
-41 c97 -45 79 -47 -41 -6 -36 12 -85 16 -194 16 -153 0 -183 11 -60 21 129
10 225 0 295 -31z m-171 -167 c6 -16 -37 -63 -58 -63 -16 0 -22 30 -11 56 14
28 59 34 69 7z m953 -173 c0 -20 -5 -30 -15 -30 -18 0 -19 14 -5 41 15 27 20
24 20 -11z m-996 -66 c9 -3 16 -13 16 -22 0 -13 -12 -14 -77 -8 -82 6 -89 9
-78 25 7 12 113 15 139 5z m-1538 -238 c22 -17 11 -35 -13 -20 -19 12 -29 34
-16 34 5 0 18 -6 29 -14z m2214 -26 c0 -16 -4 -30 -10 -30 -11 0 -14 43 -3 53
11 12 13 8 13 -23z m-2057 -4 c17 -13 23 -36 9 -36 -13 0 -52 30 -52 41 0 13
22 11 43 -5z m1942 -16 c17 -27 -20 -64 -52 -53 -14 5 -18 45 -6 56 10 11 51
8 58 -3z m-2155 -45 c7 -9 10 -19 6 -22 -8 -9 -38 9 -44 25 -5 17 23 15 38 -3z
m1004 -8 c14 -22 -3 -51 -33 -55 -29 -5 -36 21 -15 53 18 28 31 28 48 2z
m-846 -33 c29 -20 29 -37 0 -28 -31 9 -49 24 -42 35 7 13 16 11 42 -7z m156
-34 c34 -13 33 -30 -1 -30 -35 0 -58 14 -49 29 9 14 17 14 50 1z m171 -33 c27
-21 10 -40 -28 -32 -38 8 -52 19 -43 34 10 15 48 14 71 -2z m1335 4 c0 -18
-81 -111 -110 -126 -77 -40 -66 7 18 78 63 54 92 68 92 48z m-1722 -68 c5 -18
-10 -16 -34 2 -18 15 -18 15 5 13 14 -2 26 -9 29 -15z m143 -23 c26 -15 24
-30 -5 -30 -27 0 -41 14 -31 30 8 13 12 12 36 0z m174 -51 c0 -8 -6 -14 -12
-13 -7 1 -24 2 -38 3 -26 1 -35 26 -12 34 21 7 62 -9 62 -24z m159 15 c9 -3
16 -12 16 -20 0 -10 -13 -14 -45 -14 -47 0 -58 12 -27 29 20 12 34 13 56 5z
m-369 -95 c4 -6 5 -13 2 -16 -8 -7 -47 7 -47 18 0 13 37 11 45 -2z m490 -39
c3 -4 -8 -10 -23 -13 -15 -3 -35 -9 -44 -12 -13 -5 -18 -2 -18 9 0 28 69 41
85 16z m-330 -1 c4 -6 5 -13 2 -15 -7 -8 -57 7 -57 17 0 13 47 11 55 -2z m180
1 c3 -5 -7 -12 -22 -16 -15 -3 -36 -8 -45 -11 -10 -2 -18 0 -18 6 0 24 72 42
85 21z m110 -120 c-3 -5 -17 -10 -31 -10 -14 0 -22 4 -19 10 3 6 17 10 31 10
14 0 22 -4 19 -10z m-168 -6 c-3 -3 -12 -4 -19 -1 -8 3 -5 6 6 6 11 1 17 -2
13 -5z m1043 -39 c26 -31 -18 -71 -47 -42 -19 19 -8 57 16 57 10 0 24 -7 31
-15z m-600 -110 c0 -14 5 -25 10 -25 23 0 8 -29 -28 -54 -45 -31 -68 -33 -75
-7 -3 15 -11 18 -33 13 l-29 -5 20 23 c31 35 96 80 117 80 13 0 18 -7 18 -25z
m90 -176 c-32 -25 -121 -72 -126 -66 -7 7 57 58 91 73 46 20 64 17 35 -7z
m202 -19 c24 -33 30 -115 8 -115 -18 0 -73 112 -66 132 8 21 36 12 58 -17z
m-182 -490 c0 -24 -26 -38 -42 -22 -16 16 -2 42 22 42 13 0 20 -7 20 -20z"/>
<path d="M5330 6115 c0 -15 18 -40 24 -34 3 3 -1 14 -9 25 -8 10 -14 15 -15 9z"/>
<path d="M5610 5610 c0 -36 119 -257 120 -222 0 15 -107 242 -115 242 -3 0 -5
-9 -5 -20z"/>
<path d="M5690 5615 c0 -5 5 -17 10 -25 5 -8 10 -10 10 -5 0 6 -5 17 -10 25
-5 8 -10 11 -10 5z"/>
<path d="M5730 5365 c0 -9 30 -65 35 -65 7 0 -16 60 -26 66 -5 3 -9 2 -9 -1z"/>
<path d="M958 4223 c-6 -82 5 -124 25 -104 12 12 19 108 10 154 -2 15 -10 27
-17 27 -9 0 -15 -24 -18 -77z"/>
<path d="M1050 4187 c0 -19 16 -31 24 -18 3 5 -1 14 -9 21 -12 10 -15 10 -15
-3z"/>
<path d="M1050 4100 c13 -24 55 -24 55 0 0 10 -12 16 -33 18 -31 3 -33 2 -22
-18z"/>
<path d="M960 4080 c0 -20 25 -38 36 -27 8 7 -15 47 -26 47 -6 0 -10 -9 -10
-20z"/>
<path d="M1040 4031 c0 -5 7 -14 15 -21 18 -15 42 1 31 19 -8 13 -46 15 -46 2z"/>
<path d="M1050 3950 c0 -5 7 -10 16 -10 8 0 12 5 9 10 -3 6 -10 10 -16 10 -5
0 -9 -4 -9 -10z"/>
<path d="M6216 3105 c4 -8 15 -15 25 -15 23 0 25 16 3 24 -25 10 -34 7 -28 -9z"/>
</g>
</svg>
