<svg id="visual" viewBox="0 0 1920 1080" width="1920" height="1080" xmlns="http://www.w3.org/2000/svg" xmlns:xlink="http://www.w3.org/1999/xlink" version="1.1"><path d="M0 303L96 303L96 282L192 282L192 206L288 206L288 228L384 228L384 217L480 217L480 174L576 174L576 282L672 282L672 163L768 163L768 174L864 174L864 293L960 293L960 163L1056 163L1056 152L1152 152L1152 141L1248 141L1248 249L1344 249L1344 206L1440 206L1440 314L1536 314L1536 282L1632 282L1632 293L1728 293L1728 282L1824 282L1824 185L1920 185L1920 249L1920 0L1920 0L1824 0L1824 0L1728 0L1728 0L1632 0L1632 0L1536 0L1536 0L1440 0L1440 0L1344 0L1344 0L1248 0L1248 0L1152 0L1152 0L1056 0L1056 0L960 0L960 0L864 0L864 0L768 0L768 0L672 0L672 0L576 0L576 0L480 0L480 0L384 0L384 0L288 0L288 0L192 0L192 0L96 0L96 0L0 0Z" fill="#503a6e"></path><path d="M0 347L96 347L96 347L192 347L192 239L288 239L288 282L384 282L384 249L480 249L480 239L576 239L576 325L672 325L672 195L768 195L768 206L864 206L864 347L960 347L960 195L1056 195L1056 206L1152 206L1152 185L1248 185L1248 282L1344 282L1344 239L1440 239L1440 357L1536 357L1536 347L1632 347L1632 336L1728 336L1728 314L1824 314L1824 249L1920 249L1920 282L1920 247L1920 183L1824 183L1824 280L1728 280L1728 291L1632 291L1632 280L1536 280L1536 312L1440 312L1440 204L1344 204L1344 247L1248 247L1248 139L1152 139L1152 150L1056 150L1056 161L960 161L960 291L864 291L864 172L768 172L768 161L672 161L672 280L576 280L576 172L480 172L480 215L384 215L384 226L288 226L288 204L192 204L192 280L96 280L96 301L0 301Z" fill="#4e3b68"></path><path d="M0 411L96 411L96 401L192 401L192 314L288 314L288 368L384 368L384 325L480 325L480 303L576 303L576 390L672 390L672 249L768 249L768 271L864 271L864 411L960 411L960 239L1056 239L1056 260L1152 260L1152 239L1248 239L1248 336L1344 336L1344 282L1440 282L1440 411L1536 411L1536 444L1632 444L1632 390L1728 390L1728 379L1824 379L1824 303L1920 303L1920 368L1920 280L1920 247L1824 247L1824 312L1728 312L1728 334L1632 334L1632 345L1536 345L1536 355L1440 355L1440 237L1344 237L1344 280L1248 280L1248 183L1152 183L1152 204L1056 204L1056 193L960 193L960 345L864 345L864 204L768 204L768 193L672 193L672 323L576 323L576 237L480 237L480 247L384 247L384 280L288 280L288 237L192 237L192 345L96 345L96 345L0 345Z" fill="#4c3b63"></path><path d="M0 444L96 444L96 455L192 455L192 379L288 379L288 411L384 411L384 379L480 379L480 368L576 368L576 455L672 455L672 325L768 325L768 336L864 336L864 444L960 444L960 293L1056 293L1056 293L1152 293L1152 314L1248 314L1248 379L1344 379L1344 347L1440 347L1440 465L1536 465L1536 487L1632 487L1632 422L1728 422L1728 455L1824 455L1824 357L1920 357L1920 433L1920 366L1920 301L1824 301L1824 377L1728 377L1728 388L1632 388L1632 442L1536 442L1536 409L1440 409L1440 280L1344 280L1344 334L1248 334L1248 237L1152 237L1152 258L1056 258L1056 237L960 237L960 409L864 409L864 269L768 269L768 247L672 247L672 388L576 388L576 301L480 301L480 323L384 323L384 366L288 366L288 312L192 312L192 399L96 399L96 409L0 409Z" fill="#4a3b5d"></path><path d="M0 627L96 627L96 649L192 649L192 606L288 606L288 660L384 660L384 563L480 563L480 671L576 671L576 606L672 606L672 606L768 606L768 617L864 617L864 703L960 703L960 584L1056 584L1056 563L1152 563L1152 563L1248 563L1248 552L1344 552L1344 595L1440 595L1440 638L1536 638L1536 638L1632 638L1632 606L1728 606L1728 606L1824 606L1824 519L1920 519L1920 606L1920 431L1920 355L1824 355L1824 453L1728 453L1728 420L1632 420L1632 485L1536 485L1536 463L1440 463L1440 345L1344 345L1344 377L1248 377L1248 312L1152 312L1152 291L1056 291L1056 291L960 291L960 442L864 442L864 334L768 334L768 323L672 323L672 453L576 453L576 366L480 366L480 377L384 377L384 409L288 409L288 377L192 377L192 453L96 453L96 442L0 442Z" fill="#483c58"></path><path d="M0 660L96 660L96 714L192 714L192 681L288 681L288 714L384 714L384 595L480 595L480 746L576 746L576 681L672 681L672 681L768 681L768 671L864 671L864 768L960 768L960 660L1056 660L1056 617L1152 617L1152 606L1248 606L1248 584L1344 584L1344 627L1440 627L1440 671L1536 671L1536 681L1632 681L1632 638L1728 638L1728 660L1824 660L1824 584L1920 584L1920 660L1920 604L1920 517L1824 517L1824 604L1728 604L1728 604L1632 604L1632 636L1536 636L1536 636L1440 636L1440 593L1344 593L1344 550L1248 550L1248 561L1152 561L1152 561L1056 561L1056 582L960 582L960 701L864 701L864 615L768 615L768 604L672 604L672 604L576 604L576 669L480 669L480 561L384 561L384 658L288 658L288 604L192 604L192 647L96 647L96 625L0 625Z" fill="#463c52"></path><path d="M0 789L96 789L96 789L192 789L192 822L288 822L288 789L384 789L384 746L480 746L480 843L576 843L576 811L672 811L672 789L768 789L768 757L864 757L864 854L960 854L960 757L1056 757L1056 735L1152 735L1152 735L1248 735L1248 703L1344 703L1344 735L1440 735L1440 833L1536 833L1536 779L1632 779L1632 757L1728 757L1728 800L1824 800L1824 714L1920 714L1920 725L1920 658L1920 582L1824 582L1824 658L1728 658L1728 636L1632 636L1632 679L1536 679L1536 669L1440 669L1440 625L1344 625L1344 582L1248 582L1248 604L1152 604L1152 615L1056 615L1056 658L960 658L960 766L864 766L864 669L768 669L768 679L672 679L672 679L576 679L576 744L480 744L480 593L384 593L384 712L288 712L288 679L192 679L192 712L96 712L96 658L0 658Z" fill="#443c4d"></path><path d="M0 854L96 854L96 876L192 876L192 897L288 897L288 876L384 876L384 854L480 854L480 908L576 908L576 919L672 919L672 897L768 897L768 833L864 833L864 919L960 919L960 811L1056 811L1056 811L1152 811L1152 854L1248 854L1248 833L1344 833L1344 833L1440 833L1440 887L1536 887L1536 897L1632 897L1632 865L1728 865L1728 897L1824 897L1824 833L1920 833L1920 822L1920 723L1920 712L1824 712L1824 798L1728 798L1728 755L1632 755L1632 777L1536 777L1536 831L1440 831L1440 733L1344 733L1344 701L1248 701L1248 733L1152 733L1152 733L1056 733L1056 755L960 755L960 852L864 852L864 755L768 755L768 787L672 787L672 809L576 809L576 841L480 841L480 744L384 744L384 787L288 787L288 820L192 820L192 787L96 787L96 787L0 787Z" fill="#423d48"></path><path d="M0 930L96 930L96 930L192 930L192 973L288 973L288 919L384 919L384 908L480 908L480 962L576 962L576 962L672 962L672 951L768 951L768 876L864 876L864 995L960 995L960 919L1056 919L1056 897L1152 897L1152 941L1248 941L1248 887L1344 887L1344 919L1440 919L1440 951L1536 951L1536 962L1632 962L1632 973L1728 973L1728 941L1824 941L1824 919L1920 919L1920 908L1920 820L1920 831L1824 831L1824 895L1728 895L1728 863L1632 863L1632 895L1536 895L1536 885L1440 885L1440 831L1344 831L1344 831L1248 831L1248 852L1152 852L1152 809L1056 809L1056 809L960 809L960 917L864 917L864 831L768 831L768 895L672 895L672 917L576 917L576 906L480 906L480 852L384 852L384 874L288 874L288 895L192 895L192 874L96 874L96 852L0 852Z" fill="#3f3d42"></path><path d="M0 1081L96 1081L96 1081L192 1081L192 1081L288 1081L288 1081L384 1081L384 1081L480 1081L480 1081L576 1081L576 1081L672 1081L672 1081L768 1081L768 1081L864 1081L864 1081L960 1081L960 1081L1056 1081L1056 1081L1152 1081L1152 1081L1248 1081L1248 1081L1344 1081L1344 1081L1440 1081L1440 1081L1536 1081L1536 1081L1632 1081L1632 1081L1728 1081L1728 1081L1824 1081L1824 1081L1920 1081L1920 1081L1920 906L1920 917L1824 917L1824 939L1728 939L1728 971L1632 971L1632 960L1536 960L1536 949L1440 949L1440 917L1344 917L1344 885L1248 885L1248 939L1152 939L1152 895L1056 895L1056 917L960 917L960 993L864 993L864 874L768 874L768 949L672 949L672 960L576 960L576 960L480 960L480 906L384 906L384 917L288 917L288 971L192 971L192 928L96 928L96 928L0 928Z" fill="#3d3d3d"></path></svg>