<svg id="visual" viewBox="0 0 1920 1080" width="1920" height="1080" xmlns="http://www.w3.org/2000/svg" xmlns:xlink="http://www.w3.org/1999/xlink" version="1.1"><rect x="0" y="0" width="1920" height="1080" fill="#303140"></rect><path d="M0 674L40 668.2C80 662.3 160 650.7 240 644.3C320 638 400 637 480 654.5C560 672 640 708 720 725C800 742 880 740 960 736.3C1040 732.7 1120 727.3 1200 727.7C1280 728 1360 734 1440 710.7C1520 687.3 1600 634.7 1680 622.2C1760 609.7 1840 637.3 1880 651.2L1920 665L1920 0L1880 0C1840 0 1760 0 1680 0C1600 0 1520 0 1440 0C1360 0 1280 0 1200 0C1120 0 1040 0 960 0C880 0 800 0 720 0C640 0 560 0 480 0C400 0 320 0 240 0C160 0 80 0 40 0L0 0Z" fill="#3e117e"></path><path d="M0 594L40 601.3C80 608.7 160 623.3 240 628.8C320 634.3 400 630.7 480 606.8C560 583 640 539 720 514.2C800 489.3 880 483.7 960 516.2C1040 548.7 1120 619.3 1200 626.7C1280 634 1360 578 1440 563C1520 548 1600 574 1680 574C1760 574 1840 548 1880 535L1920 522L1920 0L1880 0C1840 0 1760 0 1680 0C1600 0 1520 0 1440 0C1360 0 1280 0 1200 0C1120 0 1040 0 960 0C880 0 800 0 720 0C640 0 560 0 480 0C400 0 320 0 240 0C160 0 80 0 40 0L0 0Z" fill="#533285"></path><path d="M0 493L40 482C80 471 160 449 240 463.7C320 478.3 400 529.7 480 535C560 540.3 640 499.7 720 472.8C800 446 880 433 960 445C1040 457 1120 494 1200 503.2C1280 512.3 1360 493.7 1440 497.7C1520 501.7 1600 528.3 1680 534.5C1760 540.7 1840 526.3 1880 519.2L1920 512L1920 0L1880 0C1840 0 1760 0 1680 0C1600 0 1520 0 1440 0C1360 0 1280 0 1200 0C1120 0 1040 0 960 0C880 0 800 0 720 0C640 0 560 0 480 0C400 0 320 0 240 0C160 0 80 0 40 0L0 0Z" fill="#674f8b"></path><path d="M0 409L40 418.3C80 427.7 160 446.3 240 440.3C320 434.3 400 403.7 480 396.3C560 389 640 405 720 401.3C800 397.7 880 374.3 960 369.8C1040 365.3 1120 379.7 1200 385.2C1280 390.7 1360 387.3 1440 380.3C1520 373.3 1600 362.7 1680 372.8C1760 383 1840 414 1880 429.5L1920 445L1920 0L1880 0C1840 0 1760 0 1680 0C1600 0 1520 0 1440 0C1360 0 1280 0 1200 0C1120 0 1040 0 960 0C880 0 800 0 720 0C640 0 560 0 480 0C400 0 320 0 240 0C160 0 80 0 40 0L0 0Z" fill="#76668f"></path><path d="M0 309L40 307C80 305 160 301 240 317.8C320 334.7 400 372.3 480 380.7C560 389 640 368 720 365.7C800 363.3 880 379.7 960 375.3C1040 371 1120 346 1200 339C1280 332 1360 343 1440 355C1520 367 1600 380 1680 387.2C1760 394.3 1840 395.7 1880 396.3L1920 397L1920 0L1880 0C1840 0 1760 0 1680 0C1600 0 1520 0 1440 0C1360 0 1280 0 1200 0C1120 0 1040 0 960 0C880 0 800 0 720 0C640 0 560 0 480 0C400 0 320 0 240 0C160 0 80 0 40 0L0 0Z" fill="#76668f"></path><path d="M0 311L40 305C80 299 160 287 240 266.5C320 246 400 217 480 219.8C560 222.7 640 257.3 720 280.5C800 303.7 880 315.3 960 306.2C1040 297 1120 267 1200 245.3C1280 223.7 1360 210.3 1440 206.3C1520 202.3 1600 207.7 1680 221.5C1760 235.3 1840 257.7 1880 268.8L1920 280L1920 0L1880 0C1840 0 1760 0 1680 0C1600 0 1520 0 1440 0C1360 0 1280 0 1200 0C1120 0 1040 0 960 0C880 0 800 0 720 0C640 0 560 0 480 0C400 0 320 0 240 0C160 0 80 0 40 0L0 0Z" fill="#674f8b"></path><path d="M0 221L40 208.5C80 196 160 171 240 174.5C320 178 400 210 480 218.5C560 227 640 212 720 208.7C800 205.3 880 213.7 960 205.2C1040 196.7 1120 171.3 1200 171.5C1280 171.7 1360 197.3 1440 199.2C1520 201 1600 179 1680 182.2C1760 185.3 1840 213.7 1880 227.8L1920 242L1920 0L1880 0C1840 0 1760 0 1680 0C1600 0 1520 0 1440 0C1360 0 1280 0 1200 0C1120 0 1040 0 960 0C880 0 800 0 720 0C640 0 560 0 480 0C400 0 320 0 240 0C160 0 80 0 40 0L0 0Z" fill="#533285"></path><path d="M0 133L40 121.3C80 109.7 160 86.3 240 80.3C320 74.3 400 85.7 480 86.3C560 87 640 77 720 67.7C800 58.3 880 49.7 960 60.2C1040 70.7 1120 100.3 1200 100.7C1280 101 1360 72 1440 61C1520 50 1600 57 1680 63C1760 69 1840 74 1880 76.5L1920 79L1920 0L1880 0C1840 0 1760 0 1680 0C1600 0 1520 0 1440 0C1360 0 1280 0 1200 0C1120 0 1040 0 960 0C880 0 800 0 720 0C640 0 560 0 480 0C400 0 320 0 240 0C160 0 80 0 40 0L0 0Z" fill="#3e117e"></path></svg>