<svg id="visual" viewBox="0 0 1920 1080" width="1920" height="1080" xmlns="http://www.w3.org/2000/svg" xmlns:xlink="http://www.w3.org/1999/xlink" version="1.1"><rect x="0" y="0" width="1920" height="1080" fill="#303140"></rect><defs><linearGradient id="grad1_0" x1="43.8%" y1="100%" x2="100%" y2="0%"><stop offset="14.444444444444446%" stop-color="#480707" stop-opacity="1"></stop><stop offset="85.55555555555554%" stop-color="#480707" stop-opacity="1"></stop></linearGradient></defs><defs><linearGradient id="grad1_1" x1="43.8%" y1="100%" x2="100%" y2="0%"><stop offset="14.444444444444446%" stop-color="#480707" stop-opacity="1"></stop><stop offset="85.55555555555554%" stop-color="#490c1b" stop-opacity="1"></stop></linearGradient></defs><defs><linearGradient id="grad1_2" x1="43.8%" y1="100%" x2="100%" y2="0%"><stop offset="14.444444444444446%" stop-color="#47152a" stop-opacity="1"></stop><stop offset="85.55555555555554%" stop-color="#490c1b" stop-opacity="1"></stop></linearGradient></defs><defs><linearGradient id="grad1_3" x1="43.8%" y1="100%" x2="100%" y2="0%"><stop offset="14.444444444444446%" stop-color="#47152a" stop-opacity="1"></stop><stop offset="85.55555555555554%" stop-color="#411d35" stop-opacity="1"></stop></linearGradient></defs><defs><linearGradient id="grad1_4" x1="43.8%" y1="100%" x2="100%" y2="0%"><stop offset="14.444444444444446%" stop-color="#3a253c" stop-opacity="1"></stop><stop offset="85.55555555555554%" stop-color="#411d35" stop-opacity="1"></stop></linearGradient></defs><defs><linearGradient id="grad1_5" x1="43.8%" y1="100%" x2="100%" y2="0%"><stop offset="14.444444444444446%" stop-color="#3a253c" stop-opacity="1"></stop><stop offset="85.55555555555554%" stop-color="#342c40" stop-opacity="1"></stop></linearGradient></defs><defs><linearGradient id="grad1_6" x1="43.8%" y1="100%" x2="100%" y2="0%"><stop offset="14.444444444444446%" stop-color="#303140" stop-opacity="1"></stop><stop offset="85.55555555555554%" stop-color="#342c40" stop-opacity="1"></stop></linearGradient></defs><defs><linearGradient id="grad2_0" x1="0%" y1="100%" x2="56.3%" y2="0%"><stop offset="14.444444444444446%" stop-color="#480707" stop-opacity="1"></stop><stop offset="85.55555555555554%" stop-color="#480707" stop-opacity="1"></stop></linearGradient></defs><defs><linearGradient id="grad2_1" x1="0%" y1="100%" x2="56.3%" y2="0%"><stop offset="14.444444444444446%" stop-color="#490c1b" stop-opacity="1"></stop><stop offset="85.55555555555554%" stop-color="#480707" stop-opacity="1"></stop></linearGradient></defs><defs><linearGradient id="grad2_2" x1="0%" y1="100%" x2="56.3%" y2="0%"><stop offset="14.444444444444446%" stop-color="#490c1b" stop-opacity="1"></stop><stop offset="85.55555555555554%" stop-color="#47152a" stop-opacity="1"></stop></linearGradient></defs><defs><linearGradient id="grad2_3" x1="0%" y1="100%" x2="56.3%" y2="0%"><stop offset="14.444444444444446%" stop-color="#411d35" stop-opacity="1"></stop><stop offset="85.55555555555554%" stop-color="#47152a" stop-opacity="1"></stop></linearGradient></defs><defs><linearGradient id="grad2_4" x1="0%" y1="100%" x2="56.3%" y2="0%"><stop offset="14.444444444444446%" stop-color="#411d35" stop-opacity="1"></stop><stop offset="85.55555555555554%" stop-color="#3a253c" stop-opacity="1"></stop></linearGradient></defs><defs><linearGradient id="grad2_5" x1="0%" y1="100%" x2="56.3%" y2="0%"><stop offset="14.444444444444446%" stop-color="#342c40" stop-opacity="1"></stop><stop offset="85.55555555555554%" stop-color="#3a253c" stop-opacity="1"></stop></linearGradient></defs><defs><linearGradient id="grad2_6" x1="0%" y1="100%" x2="56.3%" y2="0%"><stop offset="14.444444444444446%" stop-color="#342c40" stop-opacity="1"></stop><stop offset="85.55555555555554%" stop-color="#303140" stop-opacity="1"></stop></linearGradient></defs><g transform="translate(1920, 1080)"><path d="M-813 0C-759.9 -32.8 -706.8 -65.6 -743.5 -131.1C-780.2 -196.6 -906.8 -294.8 -863.6 -314.3C-820.4 -333.8 -607.4 -274.6 -607.9 -351C-608.5 -427.4 -822.4 -639.3 -822 -689.7C-821.5 -740.1 -606.7 -628.9 -512.9 -611.3C-419.2 -593.7 -446.5 -669.8 -449 -777.7C-451.5 -885.6 -429 -1025.4 -369.4 -1014.9C-309.8 -1004.4 -212.9 -843.7 -145.2 -823.3C-77.4 -802.9 -38.7 -923 0 -1043L0 0Z" fill="#312e40"></path><path d="M-696.9 0C-651.3 -28.1 -605.8 -56.2 -637.3 -112.4C-668.8 -168.5 -777.2 -252.7 -740.2 -269.4C-703.2 -286.1 -520.7 -235.4 -521.1 -300.9C-521.5 -366.3 -704.9 -548 -704.5 -591.2C-704.2 -634.4 -520 -539 -439.7 -524C-359.3 -508.9 -382.8 -574.1 -384.9 -666.6C-387 -759.1 -367.7 -878.9 -316.6 -869.9C-265.5 -860.9 -182.5 -723.1 -124.4 -705.7C-66.3 -688.2 -33.2 -791.1 0 -894L0 0Z" fill="#37293e"></path><path d="M-580.7 0C-542.8 -23.4 -504.9 -46.9 -531.1 -93.6C-557.3 -140.4 -647.7 -210.6 -616.8 -224.5C-586 -238.4 -433.9 -196.2 -434.2 -250.7C-434.6 -305.3 -587.4 -456.7 -587.1 -492.7C-586.8 -528.6 -433.3 -449.2 -366.4 -436.6C-299.4 -424.1 -319 -478.4 -320.7 -555.5C-322.5 -632.6 -306.4 -732.4 -263.8 -724.9C-221.3 -717.4 -152.1 -602.6 -103.7 -588.1C-55.3 -573.5 -27.6 -659.3 0 -745L0 0Z" fill="#3e2139"></path><path d="M-464.6 0C-434.2 -18.7 -403.9 -37.5 -424.9 -74.9C-445.9 -112.3 -518.2 -168.5 -493.5 -179.6C-468.8 -190.8 -347.1 -156.9 -347.4 -200.6C-347.7 -244.2 -469.9 -365.3 -469.7 -394.1C-469.4 -422.9 -346.7 -359.4 -293.1 -349.3C-239.5 -339.3 -255.2 -382.7 -256.6 -444.4C-258 -506.1 -245.1 -585.9 -211.1 -579.9C-177 -573.9 -121.7 -482.1 -83 -470.5C-44.2 -458.8 -22.1 -527.4 0 -596L0 0Z" fill="#441930"></path><path d="M-348.4 0C-325.7 -14.1 -302.9 -28.1 -318.7 -56.2C-334.4 -84.3 -388.6 -126.3 -370.1 -134.7C-351.6 -143.1 -260.3 -117.7 -260.5 -150.4C-260.8 -183.2 -352.5 -274 -352.3 -295.6C-352.1 -317.2 -260 -269.5 -219.8 -262C-179.7 -254.5 -191.4 -287.1 -192.4 -333.3C-193.5 -379.5 -183.9 -439.4 -158.3 -434.9C-132.8 -430.4 -91.3 -361.6 -62.2 -352.8C-33.2 -344.1 -16.6 -395.6 0 -447L0 0Z" fill="#481023"></path><path d="M-232.3 0C-217.1 -9.4 -201.9 -18.7 -212.4 -37.5C-222.9 -56.2 -259.1 -84.2 -246.7 -89.8C-234.4 -95.4 -173.6 -78.5 -173.7 -100.3C-173.8 -122.1 -235 -182.7 -234.8 -197.1C-234.7 -211.5 -173.3 -179.7 -146.6 -174.7C-119.8 -169.6 -127.6 -191.4 -128.3 -222.2C-129 -253 -122.6 -293 -105.5 -290C-88.5 -287 -60.8 -241 -41.5 -235.2C-22.1 -229.4 -11.1 -263.7 0 -298L0 0Z" fill="#490913"></path><path d="M-116.1 0C-108.6 -4.7 -101 -9.4 -106.2 -18.7C-111.5 -28.1 -129.5 -42.1 -123.4 -44.9C-117.2 -47.7 -86.8 -39.2 -86.8 -50.1C-86.9 -61.1 -117.5 -91.3 -117.4 -98.5C-117.4 -105.7 -86.7 -89.8 -73.3 -87.3C-59.9 -84.8 -63.8 -95.7 -64.1 -111.1C-64.5 -126.5 -61.3 -146.5 -52.8 -145C-44.3 -143.5 -30.4 -120.5 -20.7 -117.6C-11.1 -114.7 -5.5 -131.9 0 -149L0 0Z" fill="#480707"></path></g><g transform="translate(0, 0)"><path d="M849 0C877.7 49.4 906.4 98.8 951.3 167.7C996.2 236.7 1057.3 325.3 1014.9 369.4C972.4 413.4 826.4 413 742.2 428.5C657.9 444 635.4 475.6 599.8 503.3C564.2 531 515.6 555 465.4 554.6C415.1 554.3 363.3 529.6 356 616.6C348.7 703.6 386 902.3 360.5 990.4C335 1078.5 246.8 1056.1 176.3 999.6C105.7 943.1 52.9 852.5 0 762L0 0Z" fill="#312e40"></path><path d="M727.7 0C752.3 42.3 776.9 84.7 815.4 143.8C853.9 202.9 906.3 278.8 869.9 316.6C833.5 354.4 708.4 354 636.2 367.3C563.9 380.6 544.6 407.6 514.1 431.4C483.6 455.2 442 475.7 398.9 475.4C355.8 475.1 311.4 453.9 305.1 528.5C298.9 603.1 330.8 773.4 309 848.9C287.2 924.5 211.5 905.2 151.1 856.8C90.6 808.4 45.3 730.7 0 653.1L0 0Z" fill="#37293e"></path><path d="M606.4 0C626.9 35.3 647.4 70.5 679.5 119.8C711.6 169.1 755.2 232.4 724.9 263.8C694.6 295.3 590.3 295 530.1 306.1C469.9 317.2 453.9 339.7 428.4 359.5C403 379.3 368.3 396.4 332.4 396.2C296.5 395.9 259.5 378.3 254.3 440.4C249.1 502.6 275.7 644.5 257.5 707.5C239.3 770.4 176.3 754.3 125.9 714C75.5 673.6 37.8 609 0 544.3L0 0Z" fill="#3e2139"></path><path d="M485.1 0C501.5 28.2 518 56.4 543.6 95.9C569.3 135.3 604.2 185.9 579.9 211.1C555.7 236.3 472.3 236 424.1 244.9C376 253.7 363.1 271.8 342.8 287.6C322.4 303.5 294.6 317.1 265.9 316.9C237.2 316.7 207.6 302.6 203.4 352.3C199.3 402.1 220.6 515.6 206 566C191.4 616.3 141 603.5 100.7 571.2C60.4 538.9 30.2 487.2 0 435.4L0 0Z" fill="#441930"></path><path d="M363.9 0C376.2 21.2 388.5 42.3 407.7 71.9C427 101.5 453.1 139.4 434.9 158.3C416.8 177.2 354.2 177 318.1 183.6C282 190.3 272.3 203.8 257.1 215.7C241.8 227.6 221 237.8 199.4 237.7C177.9 237.5 155.7 227 152.6 264.3C149.4 301.6 165.4 386.7 154.5 424.5C143.6 462.2 105.8 452.6 75.5 428.4C45.3 404.2 22.7 365.4 0 326.6L0 0Z" fill="#481023"></path><path d="M242.6 0C250.8 14.1 259 28.2 271.8 47.9C284.6 67.6 302.1 92.9 290 105.5C277.8 118.1 236.1 118 212.1 122.4C188 126.9 181.5 135.9 171.4 143.8C161.2 151.7 147.3 158.6 133 158.5C118.6 158.4 103.8 151.3 101.7 176.2C99.6 201 110.3 257.8 103 283C95.7 308.2 70.5 301.7 50.4 285.6C30.2 269.5 15.1 243.6 0 217.7L0 0Z" fill="#490913"></path><path d="M121.3 0C125.4 7.1 129.5 14.1 135.9 24C142.3 33.8 151 46.5 145 52.8C138.9 59.1 118.1 59 106 61.2C94 63.4 90.8 67.9 85.7 71.9C80.6 75.9 73.7 79.3 66.5 79.2C59.3 79.2 51.9 75.7 50.9 88.1C49.8 100.5 55.1 128.9 51.5 141.5C47.9 154.1 35.3 150.9 25.2 142.8C15.1 134.7 7.6 121.8 0 108.9L0 0Z" fill="#480707"></path></g></svg>