<svg id="visual" viewBox="0 0 1920 1080" width="1920" height="1080" xmlns="http://www.w3.org/2000/svg" xmlns:xlink="http://www.w3.org/1999/xlink" version="1.1"><rect x="0" y="0" width="1920" height="1080" fill="#350566"></rect><path d="M0 384L101 384L101 536L202 536L202 330L303 330L303 632L404 632L404 200L505 200L505 222L606 222L606 286L707 286L707 292L808 292L808 516L909 516L909 481L1011 481L1011 547L1112 547L1112 115L1213 115L1213 544L1314 544L1314 445L1415 445L1415 329L1516 329L1516 594L1617 594L1617 158L1718 158L1718 786L1819 786L1819 618L1920 618L1920 312L1920 1081L1920 1081L1819 1081L1819 1081L1718 1081L1718 1081L1617 1081L1617 1081L1516 1081L1516 1081L1415 1081L1415 1081L1314 1081L1314 1081L1213 1081L1213 1081L1112 1081L1112 1081L1011 1081L1011 1081L909 1081L909 1081L808 1081L808 1081L707 1081L707 1081L606 1081L606 1081L505 1081L505 1081L404 1081L404 1081L303 1081L303 1081L202 1081L202 1081L101 1081L101 1081L0 1081Z" fill="#282e43"></path><path d="M0 601L101 601L101 547L202 547L202 377L303 377L303 678L404 678L404 742L505 742L505 372L606 372L606 780L707 780L707 325L808 325L808 601L909 601L909 264L1011 264L1011 732L1112 732L1112 586L1213 586L1213 487L1314 487L1314 631L1415 631L1415 455L1516 455L1516 581L1617 581L1617 469L1718 469L1718 421L1819 421L1819 172L1920 172L1920 190L1920 1081L1920 1081L1819 1081L1819 1081L1718 1081L1718 1081L1617 1081L1617 1081L1516 1081L1516 1081L1415 1081L1415 1081L1314 1081L1314 1081L1213 1081L1213 1081L1112 1081L1112 1081L1011 1081L1011 1081L909 1081L909 1081L808 1081L808 1081L707 1081L707 1081L606 1081L606 1081L505 1081L505 1081L404 1081L404 1081L303 1081L303 1081L202 1081L202 1081L101 1081L101 1081L0 1081Z" fill="#282b49"></path><path d="M0 690L101 690L101 410L202 410L202 586L303 586L303 673L404 673L404 779L505 779L505 624L606 624L606 846L707 846L707 565L808 565L808 805L909 805L909 253L1011 253L1011 792L1112 792L1112 367L1213 367L1213 789L1314 789L1314 761L1415 761L1415 756L1516 756L1516 609L1617 609L1617 497L1718 497L1718 537L1819 537L1819 432L1920 432L1920 426L1920 1081L1920 1081L1819 1081L1819 1081L1718 1081L1718 1081L1617 1081L1617 1081L1516 1081L1516 1081L1415 1081L1415 1081L1314 1081L1314 1081L1213 1081L1213 1081L1112 1081L1112 1081L1011 1081L1011 1081L909 1081L909 1081L808 1081L808 1081L707 1081L707 1081L606 1081L606 1081L505 1081L505 1081L404 1081L404 1081L303 1081L303 1081L202 1081L202 1081L101 1081L101 1081L0 1081Z" fill="#2a284e"></path><path d="M0 818L101 818L101 804L202 804L202 609L303 609L303 866L404 866L404 566L505 566L505 873L606 873L606 452L707 452L707 674L808 674L808 380L909 380L909 333L1011 333L1011 693L1112 693L1112 392L1213 392L1213 710L1314 710L1314 569L1415 569L1415 404L1516 404L1516 824L1617 824L1617 427L1718 427L1718 484L1819 484L1819 429L1920 429L1920 758L1920 1081L1920 1081L1819 1081L1819 1081L1718 1081L1718 1081L1617 1081L1617 1081L1516 1081L1516 1081L1415 1081L1415 1081L1314 1081L1314 1081L1213 1081L1213 1081L1112 1081L1112 1081L1011 1081L1011 1081L909 1081L909 1081L808 1081L808 1081L707 1081L707 1081L606 1081L606 1081L505 1081L505 1081L404 1081L404 1081L303 1081L303 1081L202 1081L202 1081L101 1081L101 1081L0 1081Z" fill="#302352"></path><path d="M0 754L101 754L101 406L202 406L202 596L303 596L303 403L404 403L404 657L505 657L505 670L606 670L606 736L707 736L707 766L808 766L808 515L909 515L909 729L1011 729L1011 549L1112 549L1112 729L1213 729L1213 797L1314 797L1314 662L1415 662L1415 824L1516 824L1516 897L1617 897L1617 881L1718 881L1718 842L1819 842L1819 899L1920 899L1920 759L1920 1081L1920 1081L1819 1081L1819 1081L1718 1081L1718 1081L1617 1081L1617 1081L1516 1081L1516 1081L1415 1081L1415 1081L1314 1081L1314 1081L1213 1081L1213 1081L1112 1081L1112 1081L1011 1081L1011 1081L909 1081L909 1081L808 1081L808 1081L707 1081L707 1081L606 1081L606 1081L505 1081L505 1081L404 1081L404 1081L303 1081L303 1081L202 1081L202 1081L101 1081L101 1081L0 1081Z" fill="#381c53"></path><path d="M0 913L101 913L101 500L202 500L202 888L303 888L303 500L404 500L404 728L505 728L505 564L606 564L606 710L707 710L707 493L808 493L808 738L909 738L909 731L1011 731L1011 855L1112 855L1112 587L1213 587L1213 542L1314 542L1314 906L1415 906L1415 755L1516 755L1516 786L1617 786L1617 823L1718 823L1718 554L1819 554L1819 694L1920 694L1920 917L1920 1081L1920 1081L1819 1081L1819 1081L1718 1081L1718 1081L1617 1081L1617 1081L1516 1081L1516 1081L1415 1081L1415 1081L1314 1081L1314 1081L1213 1081L1213 1081L1112 1081L1112 1081L1011 1081L1011 1081L909 1081L909 1081L808 1081L808 1081L707 1081L707 1081L606 1081L606 1081L505 1081L505 1081L404 1081L404 1081L303 1081L303 1081L202 1081L202 1081L101 1081L101 1081L0 1081Z" fill="#3c1853"></path><path d="M0 609L101 609L101 882L202 882L202 862L303 862L303 641L404 641L404 567L505 567L505 750L606 750L606 841L707 841L707 845L808 845L808 720L909 720L909 716L1011 716L1011 886L1112 886L1112 568L1213 568L1213 595L1314 595L1314 933L1415 933L1415 747L1516 747L1516 652L1617 652L1617 808L1718 808L1718 866L1819 866L1819 623L1920 623L1920 649L1920 1081L1920 1081L1819 1081L1819 1081L1718 1081L1718 1081L1617 1081L1617 1081L1516 1081L1516 1081L1415 1081L1415 1081L1314 1081L1314 1081L1213 1081L1213 1081L1112 1081L1112 1081L1011 1081L1011 1081L909 1081L909 1081L808 1081L808 1081L707 1081L707 1081L606 1081L606 1081L505 1081L505 1081L404 1081L404 1081L303 1081L303 1081L202 1081L202 1081L101 1081L101 1081L0 1081Z" fill="#3c1853"></path><path d="M0 719L101 719L101 754L202 754L202 837L303 837L303 793L404 793L404 738L505 738L505 663L606 663L606 674L707 674L707 740L808 740L808 712L909 712L909 897L1011 897L1011 811L1112 811L1112 820L1213 820L1213 862L1314 862L1314 646L1415 646L1415 852L1516 852L1516 717L1617 717L1617 833L1718 833L1718 632L1819 632L1819 735L1920 735L1920 807L1920 1081L1920 1081L1819 1081L1819 1081L1718 1081L1718 1081L1617 1081L1617 1081L1516 1081L1516 1081L1415 1081L1415 1081L1314 1081L1314 1081L1213 1081L1213 1081L1112 1081L1112 1081L1011 1081L1011 1081L909 1081L909 1081L808 1081L808 1081L707 1081L707 1081L606 1081L606 1081L505 1081L505 1081L404 1081L404 1081L303 1081L303 1081L202 1081L202 1081L101 1081L101 1081L0 1081Z" fill="#381c53"></path><path d="M0 778L101 778L101 988L202 988L202 766L303 766L303 828L404 828L404 771L505 771L505 986L606 986L606 805L707 805L707 748L808 748L808 881L909 881L909 898L1011 898L1011 803L1112 803L1112 786L1213 786L1213 959L1314 959L1314 808L1415 808L1415 912L1516 912L1516 804L1617 804L1617 720L1718 720L1718 790L1819 790L1819 986L1920 986L1920 723L1920 1081L1920 1081L1819 1081L1819 1081L1718 1081L1718 1081L1617 1081L1617 1081L1516 1081L1516 1081L1415 1081L1415 1081L1314 1081L1314 1081L1213 1081L1213 1081L1112 1081L1112 1081L1011 1081L1011 1081L909 1081L909 1081L808 1081L808 1081L707 1081L707 1081L606 1081L606 1081L505 1081L505 1081L404 1081L404 1081L303 1081L303 1081L202 1081L202 1081L101 1081L101 1081L0 1081Z" fill="#302352"></path><path d="M0 785L101 785L101 995L202 995L202 784L303 784L303 887L404 887L404 877L505 877L505 971L606 971L606 917L707 917L707 937L808 937L808 979L909 979L909 870L1011 870L1011 842L1112 842L1112 828L1213 828L1213 863L1314 863L1314 843L1415 843L1415 795L1516 795L1516 799L1617 799L1617 832L1718 832L1718 813L1819 813L1819 836L1920 836L1920 855L1920 1081L1920 1081L1819 1081L1819 1081L1718 1081L1718 1081L1617 1081L1617 1081L1516 1081L1516 1081L1415 1081L1415 1081L1314 1081L1314 1081L1213 1081L1213 1081L1112 1081L1112 1081L1011 1081L1011 1081L909 1081L909 1081L808 1081L808 1081L707 1081L707 1081L606 1081L606 1081L505 1081L505 1081L404 1081L404 1081L303 1081L303 1081L202 1081L202 1081L101 1081L101 1081L0 1081Z" fill="#2a284e"></path><path d="M0 930L101 930L101 932L202 932L202 872L303 872L303 1000L404 1000L404 1017L505 1017L505 974L606 974L606 970L707 970L707 986L808 986L808 1036L909 1036L909 913L1011 913L1011 857L1112 857L1112 862L1213 862L1213 949L1314 949L1314 854L1415 854L1415 1013L1516 1013L1516 1038L1617 1038L1617 903L1718 903L1718 985L1819 985L1819 1002L1920 1002L1920 898L1920 1081L1920 1081L1819 1081L1819 1081L1718 1081L1718 1081L1617 1081L1617 1081L1516 1081L1516 1081L1415 1081L1415 1081L1314 1081L1314 1081L1213 1081L1213 1081L1112 1081L1112 1081L1011 1081L1011 1081L909 1081L909 1081L808 1081L808 1081L707 1081L707 1081L606 1081L606 1081L505 1081L505 1081L404 1081L404 1081L303 1081L303 1081L202 1081L202 1081L101 1081L101 1081L0 1081Z" fill="#282b49"></path><path d="M0 990L101 990L101 975L202 975L202 1042L303 1042L303 954L404 954L404 976L505 976L505 1048L606 1048L606 1045L707 1045L707 1009L808 1009L808 976L909 976L909 991L1011 991L1011 991L1112 991L1112 1056L1213 1056L1213 1033L1314 1033L1314 957L1415 957L1415 946L1516 946L1516 1052L1617 1052L1617 987L1718 987L1718 1001L1819 1001L1819 945L1920 945L1920 996L1920 1081L1920 1081L1819 1081L1819 1081L1718 1081L1718 1081L1617 1081L1617 1081L1516 1081L1516 1081L1415 1081L1415 1081L1314 1081L1314 1081L1213 1081L1213 1081L1112 1081L1112 1081L1011 1081L1011 1081L909 1081L909 1081L808 1081L808 1081L707 1081L707 1081L606 1081L606 1081L505 1081L505 1081L404 1081L404 1081L303 1081L303 1081L202 1081L202 1081L101 1081L101 1081L0 1081Z" fill="#282e43"></path></svg>