<svg id="visual" viewBox="0 0 1920 1080" width="1920" height="1080" xmlns="http://www.w3.org/2000/svg" xmlns:xlink="http://www.w3.org/1999/xlink" version="1.1"><rect width="1920" height="1080" fill="#241b4b"></rect><g><g transform="translate(574 1002)"><path d="M0 -196.7L139.1 -139.1L196.7 0L139.1 139.1L0 196.7L-139.1 139.1L-196.7 0L-139.1 -139.1Z" fill="#351065"></path></g><g transform="translate(1691 342)"><path d="M0 -100L70.7 -70.7L100 0L70.7 70.7L0 100L-70.7 70.7L-100 0L-70.7 -70.7Z" fill="#351065"></path></g><g transform="translate(182 735)"><path d="M0 -125L88.4 -88.4L125 0L88.4 88.4L0 125L-88.4 88.4L-125 0L-88.4 -88.4Z" fill="#351065"></path></g><g transform="translate(1164 1057)"><path d="M0 -148L104.7 -104.7L148 0L104.7 104.7L0 148L-104.7 104.7L-148 0L-104.7 -104.7Z" fill="#351065"></path></g><g transform="translate(367 156)"><path d="M0 -82L58 -58L82 0L58 58L0 82L-58 58L-82 0L-58 -58Z" fill="#351065"></path></g><g transform="translate(1870 995)"><path d="M0 -186L131.5 -131.5L186 0L131.5 131.5L0 186L-131.5 131.5L-186 0L-131.5 -131.5Z" fill="#351065"></path></g><g transform="translate(738 546)"><path d="M0 -68L48.1 -48.1L68 0L48.1 48.1L0 68L-48.1 48.1L-68 0L-48.1 -48.1Z" fill="#351065"></path></g><g transform="translate(1141 548)"><path d="M0 -139L98.3 -98.3L139 0L98.3 98.3L0 139L-98.3 98.3L-139 0L-98.3 -98.3Z" fill="#351065"></path></g><g transform="translate(1182 6)"><path d="M0 -80L56.6 -56.6L80 0L56.6 56.6L0 80L-56.6 56.6L-80 0L-56.6 -56.6Z" fill="#351065"></path></g><g transform="translate(1512 826)"><path d="M0 -69L48.8 -48.8L69 0L48.8 48.8L0 69L-48.8 48.8L-69 0L-48.8 -48.8Z" fill="#351065"></path></g><g transform="translate(786 61)"><path d="M0 -159L112.4 -112.4L159 0L112.4 112.4L0 159L-112.4 112.4L-159 0L-112.4 -112.4Z" fill="#351065"></path></g></g></svg>