<svg id="visual" viewBox="0 0 1920 1080" width="1920" height="1080" xmlns="http://www.w3.org/2000/svg" xmlns:xlink="http://www.w3.org/1999/xlink" version="1.1"><rect x="0" y="0" width="1920" height="1080" fill="#362f46"></rect><path d="M0 693L274 642L549 642L823 758L1097 690L1371 807L1646 656L1920 745L1920 1081L1646 1081L1371 1081L1097 1081L823 1081L549 1081L274 1081L0 1081Z" fill="#738b00"></path><path d="M0 858L274 761L549 805L823 789L1097 741L1371 708L1646 732L1920 742L1920 1081L1646 1081L1371 1081L1097 1081L823 1081L549 1081L274 1081L0 1081Z" fill="#7b6600"></path><path d="M0 815L274 919L549 901L823 809L1097 900L1371 886L1646 881L1920 884L1920 1081L1646 1081L1371 1081L1097 1081L823 1081L549 1081L274 1081L0 1081Z" fill="#734400"></path><path d="M0 966L274 929L549 916L823 974L1097 962L1371 874L1646 974L1920 931L1920 1081L1646 1081L1371 1081L1097 1081L823 1081L549 1081L274 1081L0 1081Z" fill="#612507"></path><path d="M0 1018L274 975L549 1024L823 970L1097 985L1371 957L1646 1005L1920 1010L1920 1081L1646 1081L1371 1081L1097 1081L823 1081L549 1081L274 1081L0 1081Z" fill="#480707"></path></svg>