<svg id="visual" viewBox="0 0 1920 1080" width="1920" height="1080" xmlns="http://www.w3.org/2000/svg" xmlns:xlink="http://www.w3.org/1999/xlink" version="1.1"><rect x="0" y="0" width="1920" height="1080" fill="#2c2b36"></rect><path d="M0 690L320 624L640 764L960 634L1280 680L1600 574L1920 767L1920 0L1600 0L1280 0L960 0L640 0L320 0L0 0Z" fill="#480707"></path><path d="M0 700L320 603L640 684L960 645L1280 574L1600 704L1920 640L1920 0L1600 0L1280 0L960 0L640 0L320 0L0 0Z" fill="#510414"></path><path d="M0 466L320 455L640 461L960 597L1280 625L1600 540L1920 603L1920 0L1600 0L1280 0L960 0L640 0L320 0L0 0Z" fill="#5b011e"></path><path d="M0 528L320 458L640 521L960 515L1280 396L1600 551L1920 567L1920 0L1600 0L1280 0L960 0L640 0L320 0L0 0Z" fill="#63002a"></path><path d="M0 402L320 488L640 459L960 344L1280 382L1600 431L1920 467L1920 0L1600 0L1280 0L960 0L640 0L320 0L0 0Z" fill="#6a0037"></path><path d="M0 356L320 304L640 306L960 418L1280 415L1600 418L1920 369L1920 0L1600 0L1280 0L960 0L640 0L320 0L0 0Z" fill="#700045"></path><path d="M0 253L320 327L640 244L960 304L1280 269L1600 301L1920 213L1920 0L1600 0L1280 0L960 0L640 0L320 0L0 0Z" fill="#720057"></path><path d="M0 198L320 194L640 188L960 189L1280 172L1600 248L1920 164L1920 0L1600 0L1280 0L960 0L640 0L320 0L0 0Z" fill="#70006a"></path><path d="M0 110L320 142L640 160L960 155L1280 184L1600 138L1920 167L1920 0L1600 0L1280 0L960 0L640 0L320 0L0 0Z" fill="#670481"></path><path d="M0 34L320 115L640 88L960 101L1280 83L1600 67L1920 36L1920 0L1600 0L1280 0L960 0L640 0L320 0L0 0Z" fill="#531a98"></path></svg>