<svg id="visual" viewBox="0 0 1920 1080" width="1920" height="1080" xmlns="http://www.w3.org/2000/svg" xmlns:xlink="http://www.w3.org/1999/xlink" version="1.1"><rect x="0" y="0" width="1920" height="1080" fill="#282e43"></rect><g fill="#6245e6"><circle r="129" cx="934" cy="564"></circle><circle r="33" cx="1343" cy="612"></circle><circle r="123" cx="284" cy="760"></circle><circle r="118" cx="1671" cy="1020"></circle><circle r="127" cx="761" cy="882"></circle><circle r="37" cx="504" cy="999"></circle><circle r="52" cx="1296" cy="1056"></circle><circle r="83" cx="148" cy="217"></circle><circle r="61" cx="1262" cy="353"></circle><circle r="110" cx="464" cy="272"></circle><circle r="103" cx="1790" cy="367"></circle><circle r="102" cx="38" cy="885"></circle><circle r="80" cx="1566" cy="2"></circle><circle r="33" cx="679" cy="493"></circle><circle r="83" cx="1883" cy="869"></circle><circle r="54" cx="864" cy="220"></circle><circle r="32" cx="550" cy="719"></circle><circle r="79" cx="651" cy="21"></circle><circle r="63" cx="1034" cy="1020"></circle><circle r="119" cx="125" cy="541"></circle><circle r="95" cx="1175" cy="36"></circle><circle r="99" cx="1595" cy="689"></circle><circle r="95" cx="1904" cy="32"></circle><circle r="49" cx="1916" cy="605"></circle><circle r="41" cx="1527" cy="375"></circle><circle r="112" cx="228" cy="1069"></circle></g></svg>